<svg transform="scale(1)" version="1.1" id="KhDPnQUuKT" xmlns="http://www.w3.org/2000/svg" xmlns:xlink="http://www.w3.org/1999/xlink" x="0px" y="0px" viewBox="0 0 500 500" xml:space="preserve" class="pbimage_pbimage__wrapper__image__0LEis false"><title>Translate 1</title><style type="text/css"> .st0{fill:#FFFFFF;} .st1{fill:#000005;} .st2{fill:#59BE4C;}
 .st2{fill:#59BE4C;}
 .st1{fill:#000005;}
 .st0{fill:#FFFFFF;}</style><g id="character-1"><path class="st0" d="M180.1,264.7c0-1.8-5.4-17.6-3.6-28s11.6-16.8,13.8-16.1s-1.4,11.1-0.8,13.1s16.7,22.9,16.8,27.4
		s-7.4,12.6-7.4,12.6s15.2,63.5-14.7,68.7c-14.7,2.5-62-68.5-62-68.5s7.9-11.8,11.6-14.2s44.1,33.8,44.1,33.8L180.1,264.7z" fill="#FFFFFF"></path><path class="st1" d="M181.9,266.4c-0.1-1.9-0.9-4-1.4-5.8c-0.9-3.6-1.6-7.2-2.1-10.9c-0.7-4-0.6-8,0.1-12c0.9-3.7,2.7-7.1,5.3-9.9
		c1.8-2.2,4-3.9,6.6-5c0.4-0.2,0.8-0.3,1.2-0.3c0.1,0,0.2,0,0.4,0c0,0,0.1,0.1,0.2,0c-0.1,0-2.7-3-2.7-2.8c0.1,1.2,0.1,2.4-0.1,3.5
		c-0.4,2.6-1.3,5.4-1.4,8c0,1.4,1,2.6,1.8,3.8c3.1,4.6,6.4,9.1,9.4,13.7c1.5,2.2,3,4.5,4.2,6.9c0.8,1.6,1.7,3.1,1.3,4.9
		c-0.7,3-2.8,5.8-4.6,8.1c-0.7,0.9-1.5,1.8-2.2,2.7c-0.2,0.2-0.4,0.4-0.5,0.7c0,0.5,0.2,1.1,0.4,1.6c0.3,1.2,0.5,2.4,0.7,3.6
		c1.7,8.9,2.7,18,2.8,27.1c0.1,9.6-0.8,20.7-6.7,28.8c-2.6,3.6-6.4,6.1-10.7,7.2c-2.9,0.7-5.3-0.3-7.7-1.9c-0.8-0.5-1.2-0.8-2-1.4
		c-1-0.7-1.3-1-2.1-1.7c-0.4-0.3-0.8-0.7-1.2-1l-0.6-0.6l-0.1-0.1l-0.2-0.2c-0.9-0.8-1.7-1.6-2.6-2.5c-0.1-0.1-0.7-0.7-0.3-0.3
		l-0.6-0.6l-1.4-1.5l-1.4-1.4c-0.2-0.2-0.4-0.5-0.6-0.7l-0.4-0.5c-1.9-2.1-3.7-4.2-5.5-6.3c-7.1-8.4-14.1-17.7-20.6-26.6
		c-4.1-5.7-8.1-11.4-12.1-17.2l-0.6-0.8l0.3,0.7c1.2-1.9,2.6-3.7,3.9-5.5c2-2.9,4.3-5.6,6.8-8c1.1-0.9,1.7-0.8,2.8-0.2
		c1.7,0.9,3.3,1.9,4.8,3c10.1,7,19.3,15.1,28.6,23.2c2.5,2.2,5.1,4.4,7.6,6.6c0.1,0.1,1.1,1,1.1,0.5l2-25.3l0.3-3.6
		c0.1-0.8-1.4-2-1.9-2.4c-0.2-0.2-1.5-1.4-1.6-0.9l-2,25.3l-0.3,3.6l1.1,0.5c-6.7-6-13.6-11.9-20.6-17.7c-5-4.1-9.9-8.2-15.2-11.9
		c-1.9-1.3-3.8-2.6-5.8-3.7c-0.9-0.5-2.4-1.5-3.5-1.1s-2,1.7-2.8,2.4c-1.4,1.6-2.8,3.2-4.1,4.9c-1.7,2.3-3.4,4.6-4.9,6.9
		c-0.1,0.2,0.2,0.6,0.3,0.7c2.9,4.4,6,8.7,9,13c6.6,9.3,13.4,18.4,20.5,27.3s14.5,17.7,23.2,25c2.8,2.3,5.9,4.8,9.4,5.9
		s7.4-0.7,10.2-2.6c8.2-5.5,10.4-16.6,11.1-25.8c0.6-10.2,0.1-20.4-1.7-30.4c-0.5-2.9-1-5.7-1.6-8.6c-0.1-0.3-0.1-0.6-0.2-0.9
		s0-0.3-0.1-0.1c0.5-0.7,1-1.3,1.6-1.9c1-1.2,1.9-2.5,2.8-3.7c1.4-2,3.4-5,3-7.6c-0.5-2-1.3-3.8-2.5-5.5
		c-3.1-5.3-6.7-10.4-10.2-15.4c-1.3-1.8-2.6-3.6-3.8-5.5c-0.2-0.3-0.4-0.6-0.4-0.9c0-1.2,0.2-2.4,0.4-3.5c0.3-1.5,0.6-3.1,0.9-4.6
		c0.3-1.2,0.4-2.5,0.2-3.7c-0.6-1.8-1.9-3.3-3.5-4.2c-0.7-0.3-1.5-0.3-2.2,0c-2.6,1.1-4.9,2.8-6.7,5c-2.7,2.9-4.5,6.4-5.4,10.2
		c-1.6,7.5,0.3,15.7,2.1,23c0.5,1.9,1.3,3.9,1.4,5.8c0,0.8,1.4,1.9,1.9,2.4C180.4,265.6,181.9,266.9,181.9,266.4z" fill="#000005"></path><path class="st0" d="M97.1,353.3c0,0-10.7,57.7-17.7,69.6c-5.3,9.1-11.6,23.9-14.6,25.5s-4.2-2.3-3.7-5.3s2.4-9.5-2.3-10.9
		s-23.5,7.4-23.5,7.4l-5,2.3c-0.3-3.9,3.7-8.1,3.7-8.1c-4.4,0.5-0.1-7.3,9-12.6s21.2-11.9,21.2-11.9s-0.7-105.9,12.4-127
		C81.8,273.8,113.7,260,97.1,353.3z" fill="#FFFFFF"></path><path class="st1" d="M95,352c-1.2,6.5-2.5,12.9-3.9,19.4c-2.5,11.8-5.1,23.7-8.4,35.3c-1.2,4.4-2.6,8.7-4.4,12.9
		c-1.1,2.4-2.5,4.6-3.7,6.9c-1.9,3.7-3.8,7.4-5.7,11.1c-1.3,2.8-2.9,5.5-4.7,8c-0.2,0.3-0.5,0.6-0.8,0.9c-0.1,0.1-0.3,0.2-0.4,0.3
		c-0.1,0.1-0.3,0.1-0.4,0.2c-1.4,0.5,0.8-1,1.4,1.2c-0.3-0.6-0.5-1.2-0.6-1.8c-0.1-0.8-0.1-1.7,0.1-2.5c0.5-2.8,1.3-5.7,0.3-8.5
		c-1.1-3.1-4.7-5-7.9-5c-2.5,0.2-5,0.7-7.3,1.6c-2.9,0.9-5.7,2-8.4,3.1c-3.2,1.3-6.3,2.7-9.4,4.2l-2.4,1.1l4.2,2.3
		c-0.1-2.9,1.8-5.8,3.7-7.8c0.5-0.5-0.9-1.5-1.1-1.7c-0.8-0.6-1.7-1-2.7-1c-0.5,0-0.2-0.1-0.1,0.1c0.7,0.5,1.4,0.9,2.1,1.3
		c0.2,0.1,0,0.2,0.1,0.1c0,0.1,0,0.1,0-0.1s0-0.3,0-0.4c0.2-1,0.7-1.9,1.3-2.6c1.9-2.7,4.4-5,7.2-6.8c3.1-2.1,6.5-3.9,9.7-5.7
		c3-1.7,5.9-3.3,8.9-5c1.5-0.8,3-1.6,4.5-2.5c0.2-0.1,0.3-0.3,0.3-0.5c0-3.2,0-6.5,0-9.7c0.1-8.1,0.2-16.3,0.4-24.4
		c0.3-10.5,0.7-21.1,1.4-31.6s1.5-21.1,2.9-31.6c1.1-8,2.3-16.2,5-23.9c0.7-2.2,1.7-4.3,3-6.1c0.4-0.5,0.8-0.9,1.2-1.3
		c0.1-0.1,0.3-0.3,0.2-0.2l0.4-0.3c0.3-0.2,0.5-0.4,0.8-0.6c1.1-0.8,2.4-1.5,3.7-2c0.3-0.1,0.7-0.2,1-0.3s-0.2,0,0.3-0.1l0.5-0.1
		c0.4-0.1,0.7-0.1,1.1-0.1h0.5c0.1,0,0.7,0,0.4,0h0.3l0.6,0.1c0.1,0,0.7,0.1,0.3,0s0.2,0.1,0.3,0.1s0.8,0.3,0.3,0.1s0.2,0.1,0.3,0.1
		c0.7,0.3-0.4-0.3,0,0c0.2,0.1,0.4,0.2,0.6,0.3c0.3,0.1-0.6-0.4-0.2-0.1l0.2,0.2c0.2,0.2,0.8,0.7,0.2,0.1c0.2,0.1,0.3,0.3,0.5,0.4
		s0.8,0.8,0.2,0.2c0.3,0.4,0.7,0.7,1,1.1c0.2,0.2,0.3,0.4,0.5,0.6s0,0,0,0l0.2,0.4c3.5,5.7,4.3,12.8,4.8,19.4
		c0.8,12.9-0.6,25.9-2.4,38.7c-0.6,4.3-1.3,8.6-2.1,12.9c-0.2,1.3,4.2,3.5,4.5,1.9c2.6-14.8,4.8-29.8,4.7-44.9
		c0-8-0.5-16.4-3.7-23.9c-2-4.7-5.5-8.6-10.4-10.2c-3.2-1-6.7-0.8-9.8,0.8c-2.5,1.2-4.6,3-6.1,5.4c-1.4,2.7-2.5,5.5-3.3,8.4
		c-1.1,4-2,8-2.7,12c-1.8,10.1-2.8,20.4-3.6,30.6c-0.9,10.9-1.4,21.9-1.8,32.9c-0.3,9.3-0.6,18.5-0.7,27.8
		c-0.1,4.8-0.1,9.6-0.1,14.5c0,0.2,0,0.4,0,0.7l0.2-0.5c-5.1,2.7-10.1,5.5-15.1,8.3c-3.8,2.1-7.7,4.1-11,7c-2.3,1.9-4.9,4.3-5.9,7.1
		c-1.1,3.1,2.5,5.3,5.3,5l-3.8-2.7c-2.1,2.2-3.9,5.2-3.8,8.3c0.1,1.3,3.1,2.9,4.2,2.3c2.8-1.3,5.5-2.6,8.4-3.8
		c5.1-2.2,10.4-4.5,15.9-5.6c0.5-0.1,1.1-0.2,1.6-0.2l0.7,0h0.3c0.2,0-0.2,0,0.1,0s0.4,0.2,0.1,0c0.3,0.2-0.4-0.4-0.4-0.3
		c0.1-0.1,0.6,1.2,0.6,1.5c0.6,2.9-0.7,5.7-0.8,8.5c-0.1,1.7,0.4,3.3,1.4,4.6c1.3,1.6,3.7,2.8,5.8,2.3c2.2-0.6,3.5-3.3,4.6-5.1
		c4-6.8,7.1-14,11-20.9c1.9-3.5,3.4-7.3,4.4-11.1c3.5-11.4,6.1-23.2,8.7-34.9c1.7-7.8,3.2-15.5,4.7-23.3c0-0.1,0-0.2,0.1-0.4
		C99.6,352.9,95.1,351,95,352z" fill="#000005"></path><path class="st0" d="M46.3,425.2c0,0-11,7.7-13.2,9.7" fill="#FFFFFF"></path><path class="st1" d="M45.6,424.1c-3.8,2.6-7.5,5.3-11.2,8.1c-0.9,0.7-1.8,1.3-2.5,2.1c-0.5,0.5-1.5,1.7-0.6,2.3s2.4-0.3,3.1-0.9
		s1.4-1.2,2.1-1.7l0.8-0.6l0.4-0.3l-0.3,0.2l0.3-0.2l1.7-1.2c2.1-1.5,4.2-3.1,6.4-4.6c0.5-0.3,0.9-0.6,1.4-1c0.6-0.4,2-1.5,1.4-2.5
		S46.2,423.6,45.6,424.1L45.6,424.1z" fill="#000005"></path><path class="st2" d="M178.5,276.8c5.5,2.1,26.2,8,30.1,11.9s7.5,40.5-26.6,74.1c-31.9,31.5-43.1,30.9-92.6,37.3
		c-25.3,3.3-51.2-5.9-51.2-5.9s27.9-123.8,56.9-139.9s80.3,29.8,80.3,29.8L178.5,276.8z" fill="#59BE4C"></path><path class="st2" d="M177.1,277.2c7.7,2.9,15.6,4.9,23.2,8.1c1.6,0.6,3.2,1.4,4.6,2.3c0.4,0.2,0.8,0.5,1.2,0.9
		c0.1,0.1,0.5,0.5,0.2,0.2c0.1,0.1,0.2,0.2,0.2,0.3c0.8,1.5,1.3,3.1,1.5,4.8c0.9,6.6,0.6,13.3-0.9,19.8c-2.1,10.1-6,19.7-11.4,28.5
		c-6.5,10.6-15.1,19.5-24.3,27.9c-6.1,5.8-12.9,10.8-20.1,15.1c-14.2,8-30.7,10-46.6,12c-5.9,0.8-11.8,1.6-17.8,2.3
		c-6.6,0.8-13.3,0.8-20,0.1c-9-0.8-17.9-2.6-26.6-5.4l-1.3-0.4l1.6,1.1c0.6-2.5,1.2-5,1.8-7.5c1.6-6.5,3.2-13,5-19.5
		c2.4-9,4.9-17.9,7.7-26.8c3-9.9,6.2-19.7,9.7-29.3c3.4-9.3,7.1-18.6,11.3-27.5c3.5-7.3,7.3-14.6,12.4-20.9c1.9-2.4,4.1-4.6,6.5-6.5
		c3-2.2,6.5-3.7,10.2-4.4c2.2-0.4,4.3-0.5,6.5-0.4c2.2,0.1,4.3,0.3,6.5,0.8c4.8,1,9.5,2.6,14,4.6c9.1,4.1,17.8,9.1,25.9,15
		c5,3.5,9.9,7.3,14.5,11.3l0.7,0.6c0.7,0.6,4.1,1.8,4.6,0.6l3.1-7.4c0.4-0.9-4.4-2.3-4.9-1.1l-3.1,7.4l4.6,0.6
		c-3.3-3-6.9-5.8-10.5-8.5c-7.9-6-16.2-11.4-25-16c-9.7-5-20.2-9.1-31.2-9.8c-8.2-0.5-16.6,1.3-22.7,7c-5.4,5-9.4,11.6-12.9,18.1
		c-4.5,8.5-8.5,17.3-12,26.3c-3.8,9.8-7.3,19.8-10.5,29.9c-3,9.5-5.8,19-8.5,28.5c-2.1,7.4-4,14.8-5.9,22.3
		c-0.9,3.7-1.8,7.4-2.7,11.2l-0.1,0.5c-0.1,0.6,1.3,1,1.6,1.1c6.8,2.3,13.8,4,20.9,5.1c6.6,1.1,13.2,1.8,19.9,1.8
		c6.8-0.1,13.5-0.7,20.2-1.7c10.1-1.3,20.3-2.5,30.3-4.4c7.5-1.3,14.7-3.5,21.7-6.5c7.3-3.5,14.1-7.9,20.3-13.2
		c9.1-7.6,17.8-15.9,24.9-25.4c6.8-9,12-19.2,15.1-30.1c2.2-7.3,3.1-15,2.7-22.6c-0.1-2.3-0.5-4.6-1.2-6.8c-0.6-1.8-1.9-3.2-3.6-4
		c-3.7-2.1-7.7-3.7-11.7-5.1c-4.3-1.5-8.7-3-13-4.4l-2.3-0.8l-1.1-0.4l-0.5-0.2c-0.5-0.2,0.5,0.2,0,0c-0.9-0.4-2.4-0.9-3.4-0.5
		S176.6,277,177.1,277.2z" fill="#59BE4C"></path><path class="st0" d="M240.1,179.6l-67.8-4.2c-4.2-0.3-7.5,3.5-7.2,8.3l2.2,43.7c0.2,4.9,3.9,9,8.1,9.3l27.2,1.7
		c2.3,4.4,5.6,10.3,7.7,14c0.9,1.6,2.9,1.6,3.4,0l4.6-13l24.8,1.6c4.2,0.3,7.5-3.5,7.2-8.3l-2.2-43.7
		C248,184.1,244.4,179.9,240.1,179.6z" fill="#FFFFFF"></path><path class="st2" d="M239.9,177.5l-28.2-1.8l-37.1-2.3c-0.8-0.1-1.7-0.1-2.5-0.1c-5.7-0.2-9.5,4.4-9.4,9.9c0,4,0.4,8,0.6,12
		l1.1,21.5l0.4,7.9c0,1.7,0.2,3.4,0.5,5c1.2,5,5.4,8.7,10.5,9.3c2.1,0.2,4.2,0.3,6.4,0.4l19.4,1.2l1.3,0.1l-2.2-1.3
		c1.8,3.5,3.7,6.9,5.6,10.3c0.7,1.6,1.6,3.1,2.7,4.5c1.3,1.5,3.4,2.1,5.3,1.3c1.6-0.8,2.1-2.8,2.6-4.3l2.3-6.4l1.6-4.5l-2.2,1.4
		l18.1,1.1c2.2,0.1,4.4,0.3,6.6,0.4c5.9,0.2,9.6-4.7,9.4-10.3c-0.4-12.3-1.2-24.7-1.9-37c-0.1-2.2-0.2-4.3-0.3-6.5
		C250.3,183.5,246,178,239.9,177.5c-1.1-0.1-2,0.6-2.2,1.6c0,0.1,0,0.2,0,0.4c0.2,1.3,1.3,2.3,2.6,2.4c3.6,0.3,5.4,4,5.6,7.3
		c0.1,1.9,0.2,3.7,0.3,5.6l1.1,21.4c0.3,5.3,0.6,10.6,0.8,15.9c0.1,2.9-1.2,6.7-4.7,6.8c-1.9,0.1-3.8-0.2-5.7-0.4l-19.4-1.2
		c-1-0.1-1.9,0.5-2.2,1.4l-3.1,8.5c-0.5,1.4-1,2.8-1.5,4.1c0,0.1-0.1,0.2-0.1,0.3c-0.2-0.5,1,0,1,0c0.3,0,0.1,0.2,0-0.1
		c-0.1-0.1-0.2-0.3-0.2-0.4l-0.5-0.9l-1.2-2.1c-1.7-3-3.4-6.1-5-9.1c-0.7-1.3-1.3-2.6-3-2.8h-0.7l-9.2-0.6l-12.1-0.8l-4-0.2
		c-0.8,0-1.6-0.1-2.4-0.3c-3.2-1-4.3-4.5-4.5-7.6l-0.4-7.3l-1.2-23.8l-0.5-9.1c-0.1-2-0.4-4.2,0.5-6c0.7-1.8,2.5-2.9,4.4-2.9l1,0.1
		l5.8,0.4l21.4,1.3l24.2,1.5l14.7,0.9h0.7c1,0.2,2-0.6,2.2-1.6c0-0.1,0-0.3,0-0.4C242.3,178.5,241.2,177.6,239.9,177.5z" fill="#59BE4C"></path><path class="st2" d="M189.1,210.5c-2.8,0-5.3-1.7-6.3-4.3c-2.5-5.6,2.1-9.9,4.8-11.4l0.1-0.1c3.6-1.4,5.9-0.4,7.2,0.7
		c2.6,2.3,3.2,6.6,2.4,9.6s-3.8,5.1-7.3,5.4C189.7,210.5,189.4,210.5,189.1,210.5z M188.8,197.2c-0.6,0.4-5.6,3.4-3.6,7.9
		c0.8,1.8,2.7,2.9,4.6,2.7c2.3-0.2,4.4-1.7,4.9-3.4c0.6-2.2,0.1-5.4-1.6-6.9C192,196.6,190.6,196.5,188.8,197.2L188.8,197.2z" fill="#59BE4C"></path><path class="st2" d="M188.5,209.5c-1.4,0-2.8-0.5-3.8-1.5c-1.1-1.2-1.7-2.7-1.7-4.3c-0.1-2.8,1.7-5.3,3.9-7s5.2-2.5,7.4-0.8
		s2.5,5.2,2.1,7.7C195.8,207.4,192.1,209.6,188.5,209.5c-0.6,0-0.4,0.6-0.3,0.9c0.3,0.5,0.8,0.9,1.4,1c3.8,0.1,7.9-2.1,8.7-6.1
		c0.8-3.7-0.3-7.6-3-10.3c-2.7-2.4-6.6-2.6-9.5-0.6c-2.8,1.9-4.9,4.9-4.8,8.3c0.3,4.7,4,8.4,8.6,8.7c0.6,0,0.4-0.6,0.3-1
		C189.6,209.9,189.1,209.6,188.5,209.5z" fill="#59BE4C"></path><path class="st2" d="M188,196.3c-1.4,0.8-2.6,1.9-3.5,3.3c-1.4,2.5-0.9,5.5,1.2,7.5c1.9,1.8,4.7,2.3,7.1,1.1
		c1.3-0.5,2.4-1.6,2.9-2.9c0.3-1.3,0.4-2.7,0.1-4c-0.3-1.7-1.2-3.3-2.6-4.4C191.6,195.7,189.7,195.5,188,196.3
		c-0.9,0.4,0.7,2.2,1.5,1.9c0.6-0.3,1.3-0.4,2-0.4c0.2,0,0.4,0,0.6,0.1c0.1,0,0.2,0.1,0.3,0.1c0,0,0.3,0.2,0.2,0.1s0.3,0.3,0.1,0.1
		c0.1,0.1,0.2,0.2,0.2,0.3c-0.1-0.1,0.1,0.2,0.1,0.2s0.1,0.2,0.1,0.2c0.2,0.5,0.4,1,0.5,1.6c0.2,1,0.2,2.1,0,3.2
		c-0.3,1.1-1.1,2-2.2,2.5c-1,0.5-2,0.8-3.1,0.7c-0.3,0-0.7-0.1-1-0.2c-0.3-0.1-0.5-0.2-0.8-0.4c-0.3-0.3-0.5-0.7-0.7-1.1
		c-0.2-0.5-0.3-1-0.3-1.5c0-0.9,0.3-1.8,0.8-2.5c0.5-0.8,1.1-1.4,1.8-2c0.3-0.2,0.5-0.4,0.8-0.6l0.1-0.1h0.1l0.2-0.1
		c0.5-0.3,0.1-0.9-0.1-1.2S188.4,196,188,196.3z" fill="#59BE4C"></path><rect class="st2" x="192.1" y="202.9" transform="matrix(2.896848e-02 -0.9996 0.9996 2.896848e-02 -7.4664 400.7877)" width="21" height="2.7" fill="#59BE4C"></rect><path class="st2" d="M203,213.7l-2.7-0.1l1.2,2.1l0.6-20.1c0-0.2,0-0.4,0-0.6c0-0.1,0-0.2,0-0.1c0.2-0.1,1.1,0,1.3,0h1.3l-1.2-2.1
		l-0.5,18.4L203,213.7c0,0.5,0.2,1,0.5,1.4c0,0.1,0.7,0.9,0.7,0.6l0.5-18.4l0.1-2.6c0-0.4-0.6-2.1-1.2-2.1l-2.7-0.1v0.1l-0.5,18.4
		l-0.1,2.6c0,0.4,0.6,2.1,1.2,2.1l2.7,0.1c0.2,0-0.3-1.1-0.4-1.2C203.7,214.4,203.4,213.7,203,213.7z" fill="#59BE4C"></path><path class="st2" d="M202.8,204.4l-0.4-2.6c4.8-0.8,5.2-0.3,5.6,0.1l-1.9,1.9c0.1,0.1,0.3,0.2,0.5,0.3
		C205.3,204,204.1,204.1,202.8,204.4z" fill="#59BE4C"></path><path class="st2" d="M203.8,204.7l-0.4-2.6l-0.3,0.7c0.9-0.1,1.8-0.3,2.8-0.4h0.5h0.3h0.7l0.5,0.1c0.1,0-0.3-0.1-0.1,0h0.1
		c0,0,0.1,0,0.1,0.1c-0.2-0.1-0.3-0.1-0.1-0.1s-0.2-0.2-0.1-0.1l0.2,0.1l-0.5-1.6l-1.9,1.9c-0.5,0.5,0.1,1.3,0.5,1.6
		c0.3,0.3,0.8,0.6,1.2,0.7l-0.8-2.1c-0.6,0-1.1,0-1.7,0.1c-0.8,0.1-1.6,0.2-2.3,0.3c-0.6,0.1-0.3,0.9-0.1,1.2s0.8,1,1.4,0.9
		c0.7-0.1,1.5-0.2,2.2-0.3l0.9-0.1c0.2,0-0.1,0,0,0h0.2h0.2c0.6,0.1,0.6-0.6,0.5-1c-0.2-0.5-0.7-1-1.3-1.1c0.1,0,0.3,0.1,0.1,0
		s0.3,0.3,0.1,0.1l0.5,1.6l1.9-1.9c0.5-0.5-0.1-1.3-0.5-1.6c-1-1-2.5-0.9-3.9-0.8c-0.9,0.1-1.8,0.2-2.6,0.3
		c-0.3,0.1-0.4,0.4-0.3,0.7l0.4,2.6c0.1,0.6,0.5,1.1,1.1,1.4C203.5,205.5,203.8,205.3,203.8,204.7z" fill="#59BE4C"></path><polygon class="st2" points="185.9,221.1 186.1,212 188.8,212.1 188.6,218.4 203.5,218.3 203.5,220.9 	" fill="#59BE4C"></polygon><path class="st2" d="M187.1,221.3l0.3-9.1l-0.9,0.1l2.7,0.1l-1.5-0.4l-0.2,6.4c0,0.4,1.6,0.4,1.9,0.4l14.9-0.1l-1.8-0.4v2.7
		l0.6-0.2l-15.4,0.2h-2.2c-0.3,0-0.8,0-0.5,0.3s1.3,0.3,1.7,0.3l15.5-0.2h2.2c0.1,0,0.6,0,0.6-0.2v-2.7c0-0.4-1.6-0.4-1.9-0.4
		l-14.9,0.1l1.9,0.4l0.2-6.4c0-0.3-1.4-0.4-1.5-0.4l-2.7-0.1c-0.1,0-0.9-0.1-0.9,0.1l-0.3,9.1C184.6,221.4,187.1,221.6,187.1,221.3z
		" fill="#59BE4C"></path><path class="st2" d="M224.1,222.7c-2.3,0-4.7-0.5-6.8-1.5c-2.1-1.1-3.3-2.7-3.2-4.5c0-1.3,0.6-2.6,1.6-3.4c2.5-2.1,7-1.7,8-1.6
		c4.4-0.3,7.6,2,8.6,4.5c0.8,1.7,0.2,3.8-1.3,4.9C229.6,222.3,226.9,222.8,224.1,222.7z M222.2,214.3c-1.5,0-3.7,0.1-4.8,1
		c-0.4,0.3-0.7,0.9-0.6,1.4c0,0.9,0.9,1.6,1.8,2c3.3,1.7,9.2,1.6,10.8,0.3c0.6-0.4,0.8-1.2,0.5-1.8c-0.6-1.6-3.1-3.1-6.1-2.9h-0.1
		h-0.1C223.1,214.3,222.6,214.3,222.2,214.3z" fill="#59BE4C"></path><path class="st2" d="M225.1,222.4c-3-0.1-7-0.8-9-3.4c-1.4-2-1-4.8,1-6.3c0.4-0.3,0.8-0.5,1.2-0.6c1-0.2,2.1-0.3,3.1-0.2
		c1.1,0.1,2.1,0,3.2,0.1c2.7,0.2,5.1,1.8,6.4,4.2c0.8,1.5,0.5,3.4-0.6,4.6C229,222.4,227,222.4,225.1,222.4c-0.6,0-1.2,0.2-1.7,0.4
		c-0.1,0-0.9,0.3-0.4,0.3c2.1,0.1,4.3-0.2,6.3-0.9c1.7-0.3,3.1-1.4,4-2.8c1.7-3.4-1.8-6.6-4.7-7.5c-1.5-0.4-3.1-0.6-4.6-0.6
		c-1.3-0.1-2.7-0.1-4,0.1c-3.2,0.5-7.6,1.9-7.3,6c0.4,4.5,6.7,5.5,10.2,5.6c0.6,0,1.1-0.2,1.7-0.4
		C224.9,222.6,225.6,222.4,225.1,222.4z" fill="#59BE4C"></path><path class="st2" d="M223.2,214c-1.4,0-2.8,0.1-4.2,0.5c-1.1,0.3-2.6,0.6-3.2,1.6c-1.6,2.5,2.8,3.7,4.4,4c2.4,0.5,4.8,0.4,7.1-0.1
		c1.1-0.2,2.1-0.5,3-1.1c0.8-0.6,1-1.7,0.4-2.4c-0.1-0.1-0.1-0.2-0.2-0.3c-0.8-1-2-1.7-3.3-2c-0.8-0.2-1.5-0.3-2.3-0.2
		C224.4,214,223.8,213.9,223.2,214c-0.6-0.1-1.2,0.1-1.7,0.3c-0.1,0-0.9,0.3-0.4,0.3s0.9,0.1,1.3,0.1s1-0.1,1.5,0
		c1.1,0.1,2.1,0.4,3,1c0.7,0.4,1.3,1,1.7,1.8c0.4,0.7,0,1.6-0.7,2c0,0,0,0,0,0c-0.2,0.2,0.3,0-0.1,0s-0.7,0.1-1.1,0.1
		c-0.9,0-1.9,0-2.8-0.1c-1.8-0.2-3.9-0.6-5.2-1.8c-0.8-0.6-0.9-1.7-0.3-2.5c0.1-0.1,0.2-0.2,0.3-0.3c0.1-0.1,0.3-0.2,0.4-0.2
		c0,0.1-0.4,0.1-0.1,0l0.5-0.1c0.6,0,1.1,0,1.7,0c0.6,0,1.1-0.2,1.7-0.4C223,214.2,223.7,214,223.2,214z" fill="#59BE4C"></path><polygon class="st2" points="225.1,210.2 211.5,209.9 211.9,196.4 214.5,196.5 214.2,207.2 225.1,207.6 	" fill="#59BE4C"></polygon><path class="st2" d="M224.9,209.1l-11.9-0.3l-1.7-0.1l1.1,1.6l0.3-11.8l0.1-1.7l-0.9,0.7l2.7,0.1l-1.1-1.6l-0.3,10.8
		c0,0.6,0.4,1.6,1.1,1.6l10.9,0.3l-1.1-1.6l-0.1,2.7c-0.1,0.6,0.3,1.3,0.9,1.6c0.4,0.2,0.8,0.1,1-0.3c0.1-0.1,0.1-0.2,0.1-0.3
		l0.1-2.7c0-0.6-0.4-1.6-1.1-1.6l-10.9-0.3l1.1,1.6l0.3-10.8c0-0.6-0.4-1.6-1.1-1.6l-2.7-0.1c-0.4-0.1-0.8,0.2-0.9,0.7c0,0,0,0,0,0
		l-0.3,11.8l-0.1,1.7c0,0.6,0.4,1.6,1.1,1.6l11.9,0.4h1.7C226.6,211.5,226.1,209.1,224.9,209.1z" fill="#59BE4C"></path><rect class="st2" x="225.8" y="194.2" transform="matrix(2.896848e-02 -0.9996 0.9996 2.896848e-02 21.7414 420.2585)" width="2.7" height="9.4" fill="#59BE4C"></rect><path class="st2" d="M232.5,199.7l-8.2-0.2h-1.2l0.5,0.4l0.1-2.7l-1.8,1.1l8.2,0.2h1.2l-0.6-0.4l-0.1,2.7c0,0.9,2.3,0.1,2.3-0.7
		l0.1-2.7c0-0.3-0.3-0.4-0.5-0.4l-8.2-0.2h-1.2c-0.6,0-1.8,0.4-1.8,1.1l-0.1,2.7c0,0.3,0.3,0.4,0.6,0.4l8.2,0.2h1.2
		c0.6,0,1.2-0.3,1.6-0.7C233.1,200.1,233,199.7,232.5,199.7z" fill="#59BE4C"></path><rect class="st2" x="225.9" y="199" transform="matrix(2.896848e-02 -0.9996 0.9996 2.896848e-02 17.2549 424.7634)" width="2.7" height="8.9" fill="#59BE4C"></rect><path class="st2" d="M232.3,204.8l-7.8-0.2h-1.1l0.6,0.1l0.1-2.7l-1.9,0.3l7.8,0.2h1.1l-0.6-0.1l-0.1,2.7c0,0.2,2.5,0.2,2.5-0.2
		l0.1-2.7c0-0.1-0.6-0.1-0.6-0.1l-7.8-0.2h-1.1c-0.2,0-1.9,0-1.9,0.3l-0.1,2.7c0,0.1,0.6,0.1,0.6,0.1l7.8,0.2h1.1
		c0.6,0.1,1.2,0,1.7-0.2C233.2,204.8,232.5,204.8,232.3,204.8z" fill="#59BE4C"></path><rect class="st2" x="223.9" y="201.1" transform="matrix(2.896848e-02 -0.9996 0.9996 2.896848e-02 22.6569 428.2898)" width="15.8" height="2.7" fill="#59BE4C"></rect><path class="st2" d="M231.9,210.1l-2.7-0.1l2.2,0.6l0.4-13.8l0.1-2l-0.2,0.1l2.7,0.1l-2.2-0.6l-0.4,13.8l-0.1,1.9
		c0,0.4,2.4,0.7,2.4,0.6l0.4-13.8l0.1-1.9c0-0.4-2-0.6-2.2-0.6l-2.7-0.1c-0.1,0-0.1,0-0.2,0l-0.4,13.8l-0.1,2c0,0.4,2,0.6,2.2,0.6
		l2.7,0.1c0.5,0-0.3-0.3-0.4-0.3C233,210.2,232.4,210.1,231.9,210.1z" fill="#59BE4C"></path><path class="st0" d="M200.4,263.7c0,0-0.7-10.2-7-14.9c0,0,12.6-16.8,8.9-19s-9.8,2.5-18.2,13.4" fill="#FFFFFF"></path><path class="st1" d="M202.7,264.4c-0.4-6.2-3-12.9-8.1-16.7l0.9,2.3c3.3-4.2,6.1-8.7,8.4-13.5c1.1-2.4,2.3-5.7-0.2-7.7
		c-2.9-2.3-6.6-1.4-9.4,0.4c-5.1,3.2-8.9,8.2-12.6,12.9c-0.7,0.9,0.8,2.3,1.5,2.6c1,0.6,2.2,0.5,3-0.4c2.9-4,6.3-7.7,10.2-10.9
		c1.1-0.9,2.4-1.6,3.8-2.1c0.3-0.1-0.1,0,0.4-0.1c0.2,0,0.3-0.1,0.5-0.1c-0.1,0-0.5,0-0.1,0s0.5,0.1,0.2,0c0.2,0.1,0.4,0.2-0.1-0.1
		c0.2,0.1,0.5,0.4-0.1-0.1c0.3,0.2-0.2-0.2-0.2-0.2c-0.1-0.2-0.2-0.4-0.2-0.4c-0.5-0.1,0.3,0,0,0.1c0,0,0,0.2,0,0.2
		c0-0.6,0,0.2,0,0.3c0,0.3-0.1,0.5-0.1,0.8c-0.3,1.1-0.7,2.2-1.3,3.2c-1.4,2.8-3,5.4-4.7,8c-1.1,1.6-2.2,3.2-3.3,4.7
		c-0.5,0.7,0.4,1.9,0.9,2.3c2.6,2,4.1,5,5,8.1c0.4,1.2,0.6,2.4,0.8,3.7c0.1,0.4,0.1,0.8,0.2,1.2c0.1,0.6,0-0.3,0,0.1
		c0.2,1.2,1,2.2,2.2,2.4C201,265.6,202.8,265.6,202.7,264.4L202.7,264.4z" fill="#000005"></path><path class="st1" d="M63.8,240.7C48.7,203.9,70,186.9,86.7,181s29.7-2.6,34.9,3.7c3.8,4.6-0.3,39.4-0.3,39.4l-22.2,34.3
		C99.1,258.4,75.3,268.8,63.8,240.7z" fill="#000005"></path><path class="st0" d="M142,235.5c7-15-19.6-44.3-19.6-44.3c-6.5,0.9-18.5-1.4-18.5-1.4c9.4,17.4-10.6,30-10.6,30
		c-7.8-8.5-18.3-0.9-14.3,8.6s13.7,7.4,13.7,7.4s3.3,25.8,5.5,29.3c0,0,19.6,5.7,24.8-11.7C123.2,253.4,137.3,245.7,142,235.5z" fill="#FFFFFF"></path><path class="st1" d="M144,236.9c2.1-4.5,1.3-9.8-0.2-14.4c-1.9-5.6-4.5-10.9-7.8-15.8c-2.6-4.1-5.5-8.1-8.6-11.9
		c-1-1.3-2.1-2.5-3.2-3.8s-1.8-2-3.5-1.8c-5.7,0.6-11.7-0.3-17.3-1.4c-1.3-0.3-1.9,0.8-1.3,2c2.9,5.2,2.9,11.4,0.2,16.6
		c-2.1,3.9-4.9,7.2-8.4,9.9c-0.7,0.6-1.5,1.2-2.3,1.7l2.8,0.7c-2.9-3.1-6.9-5.4-11.2-4.5c-3.3,0.7-5.9,3.2-6.7,6.5
		c-1.8,7.6,4.7,15.7,12,17c1.9,0.4,3.9,0.4,5.8,0l-3.5-3c1,8.6,2.4,17.2,4.3,25.7c0.3,1.8,0.9,3.6,1.9,5.2c0.9,1.3,2.1,1.6,3.6,1.9
		c3.9,0.8,7.9,0.8,11.8-0.1c6.5-1.5,11-6.3,12.9-12.6l-0.6,0.6c2.8-1.6,5.5-3.4,8-5.4C137.2,246.5,141.5,242.2,144,236.9
		c0.9-1.7-2.9-4.9-3.9-2.9c-2.4,4.9-6.5,8.9-10.8,12.3c-1.7,1.3-3.4,2.6-5.2,3.7c-0.7,0.5-1.5,0.8-2.3,1.4s-1.1,2.2-1.5,3.2
		c-0.5,1.1-1.1,2.1-1.8,3.1c-1.2,1.7-2.8,3.1-4.6,4.1c-3.2,1.6-6.7,2.4-10.3,2.2c-0.8,0-1.6-0.1-2.4-0.2l-0.5-0.1c0,0,0.2,0-0.2,0
		s-0.6-0.1-0.9-0.1c-0.6-0.1-1.2-0.2-1.8-0.4l2,1.5c0.4,0.6,0.1,0.1,0-0.2c-0.2-0.5,0.1,0.2,0-0.1l-0.2-0.6
		c-0.3-0.9-0.5-1.8-0.7-2.7c-0.6-2.3-1-4.7-1.4-7.1c-0.8-4.8-1.6-9.6-2.2-14.4l-0.3-2.4c0-0.1,0-0.2,0-0.4c0-0.3,0.1,0.5,0,0.1v-0.2
		c-0.2-1.6-1.7-3.4-3.5-3h-0.2c0.6-0.1-0.1,0-0.3,0c-0.7,0.1-1.5,0.1-2.2,0c-2-0.1-3.9-0.8-5.4-2c-0.1-0.1-0.2-0.2-0.4-0.4
		c-0.2-0.2-0.3-0.3-0.5-0.5c-0.5-0.6-0.9-1.2-1.2-1.9c-0.7-1.3-1-2.8-0.9-4.3c0.1-2.6,1.7-4.9,4-6c3-1.4,5.9-0.2,8.1,2.1
		c0.7,0.8,1.8,1.3,2.8,0.7c6.9-4.3,12.9-12.1,13.4-20.4c0.1-4-0.8-7.9-2.8-11.4l-1.3,2c2.4,0.4,4.8,0.8,7.1,1.1
		c3.9,0.6,7.9,0.7,11.8,0.4l-2-1l0.7,0.8l0.8,0.9c0.5,0.6-0.1-0.2,0.1,0.1l0.7,0.8c2,2.4,3.9,4.9,5.8,7.5c4.6,6.4,9,13.3,11,21
		c0.9,3.5,1.2,7.3-0.3,10.8C139.3,235.8,143.1,239,144,236.9z" fill="#000005"></path><path class="st0" d="M122.5,212.2c4.4,1.5,8.9,2.3,13.5,2.5c15.5,0.9,17.9,6,13.5,9.5s-25.4,3.5-25.4,3.5" fill="#FFFFFF"></path><path class="st1" d="M122,214.2c4.5,1.6,9.2,2.5,13.9,2.7c3.2,0.1,6.3,0.6,9.4,1.4c0.5,0.2,1.1,0.4,1.6,0.6l0.6,0.3
		c0,0,0.4,0.2,0.1,0.1s0.2,0.1,0.3,0.1c0.3,0.2,0.6,0.4,0.9,0.6c-0.7-0.5,0.5,0.8,0.1,0.1c0.1,0.1,0.1,0.2,0.2,0.3
		c0.2,0.2-0.1-0.4,0-0.1c0.1,0.7,0.1-0.3,0.1,0.4c0,0.4,0.1-0.4,0-0.1c0,0.1-0.1,0.3-0.1,0.4c-0.1,0.4,0.1-0.1,0,0s-0.1,0.3-0.2,0.4
		s-0.2,0.3-0.3,0.4c-0.2,0.4,0.1-0.1,0,0c-0.2,0.2-0.5,0.5-0.8,0.7c-0.1,0-0.5,0.3-0.2,0.2s-0.2,0.1-0.2,0.1
		c-0.4,0.2-0.8,0.3-1.2,0.5c-0.8,0.3-1.6,0.5-2.4,0.6c-1.1,0.2-2.2,0.4-3.3,0.5c-2.4,0.3-4.8,0.5-7.2,0.7c-3.2,0.2-6.5,0.3-9.7,0.3
		c-1,0.1-1.8,1-1.7,2c0,0.1,0,0.3,0.1,0.4c0.4,1.3,1.7,2.1,3,1.9c3,0,6-0.1,9-0.3c4.8-0.3,9.9-0.6,14.6-2.2c3.1-1,6.3-3.9,5.2-7.5
		c-1.4-4.8-8.2-6.2-12.4-6.8c-6.1-0.9-12.5-0.7-18.2-2.9c-1.1-0.5-2.3,0-2.8,1c0,0,0,0.1-0.1,0.1C120,212.6,120.8,213.8,122,214.2
		L122,214.2z" fill="#000005"></path><path class="st1" d="M113.1,211.3c1.1-0.3,2.3,0.5,2.5,1.6c0,0.1,0,0.2,0,0.3c0.2,2.3-2.7,2.6-3.5,0.6c-0.5-0.9-0.2-2,0.7-2.5
		C112.9,211.4,113,211.4,113.1,211.3z" fill="#000005"></path><path class="st1" d="M127.5,205c1.1-0.3,2.3,0.5,2.5,1.6c0,0.1,0,0.2,0,0.3c0.2,2.3-2.7,2.6-3.5,0.6c-0.5-0.9-0.2-2,0.7-2.4
		C127.3,205.1,127.4,205,127.5,205z" fill="#000005"></path><path class="st1" d="M74.1,245.4c-0.2,2.7-0.5,5.3-1.2,7.9c-0.9,3.6-2.3,8.6-6.1,10.2c-0.7,0.3-1.5,0.4-2.2,0.2
		c0.4,0.1-0.4-0.1-0.5-0.1c-0.3-0.1,0.3,0.1,0,0l-0.4-0.1c-0.1,0-0.5-0.3-0.1,0l-0.4-0.2l-0.4-0.2c0.3,0.2-0.1-0.1-0.2-0.1
		c-2.1-1.4-4.1-3.4-4.5-6c-0.3-1.9,0.3-3.8,1.7-5.2c0.6-0.6,1.4-1.1,2.2-1.4c0.4-0.1,0.7-0.2,1.1-0.2c0.1,0,0.3,0,0.4,0h0.3
		c0.4,0-0.4,0,0.1,0c0.1,0,0.2,0,0.3,0.1c-0.1,0-0.5-0.2-0.1,0c0.3,0.2-0.5-0.2,0.1,0.1c-0.5-0.1-0.4-0.2-0.2-0.1
		c-0.3-0.2-0.2-0.2-0.1-0.1c0.4,0.3,0-0.1,0.4,0.4c0.6,0.9,1.1,2,1.3,3.1c0.6,3.7,0.4,7.5-0.7,11.1c-1,3.6-2.6,7-4.8,10.1
		c-1.6,2.6-3.8,4.7-6.4,6.3c-0.5,0.3-1,0.5-1.6,0.7c-0.2,0.1-0.4,0.1-0.6,0.1c-0.2,0-0.8,0.1-0.6,0.1c-0.2,0-0.5,0-0.7,0
		c0.2,0,0.3,0.1,0.1,0c0.5,0.4,0.3,0.1,0.1,0.1c0.7,0.5,0.1,0.1,0.1,0.1c0,0.2,0.3,0.2,0,0s0.1,0.2-0.2-0.2
		c-1.2-1.5-1.8-3.5-1.5-5.4c0.4-3.2,3-5.9,5.7-7.4c1.4-0.8,2.9-1.3,4.5-1.5h0.5c-0.4,0,0.1,0,0.2,0h0.5c0.1,0,0.2,0,0.3,0
		c0.3,0-0.5-0.1-0.1,0l0.5,0.1c0.3,0.1-0.5-0.2,0,0c0,0-0.6-0.3-0.1,0s-0.6-0.4,0,0c0,0-0.4-0.3,0,0s-0.2-0.4,0.1,0.1
		c0.1,0.1,0.2,0.3,0.3,0.4c-0.3-0.4,0.1,0.2,0.1,0.3c0.3,0.7,0.5,1.5,0.6,2.2c0.1,2.6-0.3,5.2-1.3,7.7c-0.6,1.8-1.3,3.5-2.2,5.2
		c-0.7,1.4,3.8,3.7,4.4,2.4c1.7-3.4,2.9-7.1,3.5-10.8c0.4-2.3-0.1-4.6-1.3-6.5c-2.5-3.7-7.6-4.9-11.7-3.6c-3.7,1.1-7.3,3.8-8.6,7.5
		c-1.6,5,1.2,10.3,6.1,11.9c0.6,0.2,1.1,0.3,1.7,0.4c3,0.3,5.7-1.4,7.7-3.3c2.8-2.7,5.1-5.9,6.8-9.5c1.9-3.9,2.9-8.1,3.1-12.3
		c0.1-3.5-0.4-7.3-3-9.9c-3.7-3.7-10.5-4.1-13.1,1c-3.2,6.4,4.4,12.8,9.6,15c2.4,1,5.3,1.4,7.7,0c1.9-1.3,3.4-3.2,4.2-5.4
		c1.6-4,2.5-8.2,2.8-12.4l0.1-0.8C78.7,245.7,74.1,243.7,74.1,245.4z" fill="#000005"></path><path class="st1" d="M106.2,225.7c-0.3,0.6-0.5,1.4-0.4,2.1c0.1,0.8,0.3,1.5,0.6,2.2c0.2,0.4,0.4,0.7,0.7,1
		c0.3,0.4,0.7,0.8,1.1,1.1c0.5,0.4,1,0.6,1.6,0.8c0.4,0.1,0.7,0.1,1.1,0.1c0.4-0.1,0.8-0.2,1.2-0.4c0.3-0.2,0.5-0.5,0.5-0.9
		c0-0.5,0-0.9-0.3-1.3c-0.2-0.4-0.5-0.8-0.9-1c-0.3-0.2-0.7-0.3-1-0.1c-0.2,0.1-0.4,0.2-0.6,0.2l0.3-0.1c-0.3,0.1-0.6,0.1-0.9,0h0.3
		c-0.3,0-0.5-0.1-0.8-0.2l0.3,0.2c-0.2-0.1-0.4-0.2-0.6-0.4l0.3,0.3c-0.2-0.1-0.3-0.3-0.5-0.4l0.3,0.4c-0.1-0.2-0.3-0.3-0.4-0.5
		l0.2,0.4c-0.1-0.2-0.2-0.3-0.2-0.5l0.2,0.5c-0.1-0.2-0.1-0.4-0.2-0.5l0.1,0.4c0-0.2,0-0.3-0.1-0.5v0.4c0-0.2,0-0.4,0.1-0.6
		l-0.1,0.4c0-0.2,0.1-0.4,0.2-0.6c0.1-0.4,0.1-0.8,0-1.2c-0.1-0.5-0.4-0.9-0.7-1.2c-0.3-0.3-0.6-0.5-1-0.5l-0.3,0.1
		C106.4,225.3,106.3,225.4,106.2,225.7L106.2,225.7z" fill="#000005"></path><path class="st1" d="M98.4,393.9c4.6-17.5,8.3-35.2,11-53.1c0.2-1-3.5-0.9-3.7,0.4c-2.7,17.7-6.3,35.3-10.9,52.6
		C94.5,395.1,98.2,395,98.4,393.9L98.4,393.9z" fill="#000005"></path><path class="st1" d="M148.1,293.8c6.7,18.9,11.7,38.4,14.9,58.2c0.9,5.6,1.7,11.2,2.3,16.8c0.1,1.3,1.1,2.3,2.4,2.4
		c1,0.1,2.7-0.6,2.5-1.9c-2.3-20.2-6.3-40.2-12.1-59.7c-1.6-5.5-3.4-11-5.3-16.5c-0.4-1.3-1.7-2-3-1.9c-1.1,0.1-1.9,1-1.9,2.1
		C148,293.5,148,293.6,148.1,293.8L148.1,293.8z" fill="#000005"></path></g><g id="character-3"><path class="st0" d="M418.3,256.9c0,0,58.5,43.6,50.7,106.3s-88.2-9.2-88.2-9.2l-5-69.2L418.3,256.9z"></path><path class="st1" d="M415.9,256.5c6,4.6,11.5,9.8,16.6,15.4c11.4,12.3,21,26.5,27.3,42c3.8,9.2,6.1,18.9,7.1,28.8
		c0.5,5.3,0.5,10.6,0.1,15.9c-0.3,4.4-1,8.8-2.3,13c-1.7,5.5-4.8,10.8-9.8,13.8c-4.5,2.6-9.9,3.1-14.8,2.5l-0.6-0.1
		c-0.2,0-1.2-0.2-0.7-0.1l-0.9-0.2l-0.6-0.1c0.7,0.1-0.2,0-0.3-0.1l-0.5-0.1l-1.1-0.3c-0.1,0-1.1-0.3-0.7-0.2l-1.2-0.4
		c-2.9-1-5.8-2.1-8.6-3.4c-6-2.8-11.7-6.1-17.2-9.8c-8.1-5.2-15.8-11-23.1-17.2c-0.6-0.4-1.1-0.8-1.5-1.4c0,0.1,0,0,0-0.2
		c0-0.5-0.1-0.9-0.1-1.4l-1-14.3l-3.1-42.5l-0.5-7.1l-0.2-2.2c-0.1-0.4-0.1-0.8-0.1-1.2c0.1-0.5,0.9-0.8,1.4-1.1l5.7-3.7l33.1-21.7
		l2.4-1.6c-0.8-0.4-1.5-0.7-2.3-0.9c-0.6-0.1-1.9-0.6-2.5-0.3l-28.1,18.4l-13.5,8.9c-0.6,0.4-0.9,0.4-0.9,1.1c0,1.4,0.2,2.8,0.3,4.1
		l2.9,40.4l1.3,18.5l0.4,4.9c0,0.5,0,0.8,0.3,1.1c0.6,0.6,1.3,1.2,2,1.7c1.3,1.2,2.7,2.3,4.1,3.4c4.1,3.3,8.3,6.5,12.7,9.5
		c11,7.7,22.8,14.8,35.7,18.7c10.7,3.2,24.1,4.9,31.8-5c4.6-5.9,6.1-13.8,6.8-21.1c1-10.5,0.2-21.1-2.3-31.3
		c-4.3-17.8-13.4-34.1-24.8-48.3c-6.7-8.4-14.3-16.1-22.6-22.9c-0.4-0.3-0.8-0.7-1.3-1c-0.9-0.5-1.9-0.9-2.9-1
		C417.5,256.4,415.7,256.3,415.9,256.5z"></path><path class="st0" d="M370.1,259.2c15.8,5.5,22.4-0.8,25,9.5c0,0,24.3,8.1,23.1-11.7c-0.2-3.1-14-35.8-26.6-43.5
		c0,0-14.1-3.9-13.8-16.6c0,0-7.3,11.7-17,12.9s-29,0.8-29.6,10.7s12.9,11.3,21,8.4l3.6,14c9.4,0.7,11.5-9.6,11.5-9.6
		s7.5,7.8,6.3,12.1s-10.2,7.1-10.2,7.1C364.5,255.6,366.9,258.1,370.1,259.2z"></path><path class="st1" d="M368.2,260.6c3.6,1.2,7.4,2.1,11.2,2.5c2.5,0.3,5,0.3,7.5,0.6c1.8,0.2,3.5,1.1,4.7,2.5c0.6,0.9,1.1,2,1.4,3.1
		c0.2,0.6,0.2,0.6,0.6,0.8c0.9,0.4,1.9,0.6,2.9,0.8c1.7,0.4,3.4,0.6,5.1,0.7c4.4,0.4,8.8-0.6,12.6-3c2.1-1.3,3.9-3.1,5-5.3
		c1.1-2.4,1.5-5.1,1.3-7.7c-0.2-1.1-0.4-2.1-0.9-3.1c-0.7-2-1.5-3.9-2.4-5.8c-2.4-5.4-5-10.6-7.9-15.7c-2.9-5.3-6.5-10.3-10.6-14.8
		c-1.4-1.5-3.1-3.4-5.1-4.2c-1-0.4-2-0.7-3-1.2c-4.4-2.1-8.4-5.6-9.9-10.4c-0.5-1.6-0.7-3.2-0.7-4.8c0-0.9-3.7,1.7-4,2.2
		c-2.1,3.5-5,6.5-8.4,8.8c-2.4,1.4-5.3,1.8-8.1,2.1c-3,0.3-6.1,0.5-9.1,0.8c-6.3,0.7-12.7,2-17.7,6.1c-2,1.5-3.3,3.7-3.5,6.2
		c-0.2,2.7,0.9,5.3,3,7c5,4,13.1,3.4,18.8,1.4l-0.8,0.1l3.6,14l0.2,0.1c7,0.4,14.1-5.4,15.5-12.3l-4.2,2.6c1.1,1.1,2.1,2.3,3,3.6
		c1.5,2,3.2,4.4,3.5,6.9c0.1,1-0.2,2-0.9,2.8c-0.5,0.6-1.1,1-1.8,1.3c-1.4,0.7-2.8,1.3-4.3,1.8c-0.9,0.3-1.7,0.8-2.3,1.4
		c-0.3,0.2-1.1,0.8-1,1.3C362.2,257.1,365.2,259.6,368.2,260.6c0.8,0.4,2.3-0.9,2.8-1.3c0.2-0.2,1.7-1.3,1.1-1.5
		c-3.1-1.1-5.5-3.6-6.5-6.8l-3.3,2.7c4.2-1.3,8-3.4,11.3-6.3c1.6-1.5,2.8-3.3,2.3-5.6c-0.6-2.2-1.7-4.3-3.2-6.1
		c-1-1.3-2-2.6-3.1-3.8c-0.7-0.7-4,1.9-4.2,2.6c-0.2,1.1-0.6,2.2-1.1,3.2c-0.4,0.9-1,1.8-1.7,2.6c-0.2,0.2-0.3,0.4-0.5,0.5l-0.1,0.1
		c-0.1,0.1,0.4-0.1,0,0c0,0-0.4,0.2-0.5,0.2c-0.6,0.2-3,0.8-3.4,0.3c-0.3-0.3-0.4-1.4-0.5-1.8l-1.8-7l-1.3-5.1
		c0-0.2-0.8,0.1-0.8,0.1c-4.9,1.7-11.7,1.9-16.3-1c-2.2-1.3-3.7-3.7-3.9-6.3c-0.1-1.2,0.1-2.5,0.6-3.6c0.2-0.4,0.4-0.8,0.7-1.1
		c0-0.1,0.4-0.4,0.2-0.2l0.3-0.3c-0.3,0.3,0.2-0.2,0,0s0.1,0,0,0s-0.1,0,0.1-0.1c-0.2,0.1,0.4-0.2,0.5-0.3c0.5-0.2,1.1-0.4,1.6-0.6
		c1.3-0.4,2.6-0.8,4-1c3-0.6,6-0.9,9.1-1.2c2.8-0.2,5.6-0.4,8.3-0.8c3.5-0.6,6.9-2,9.7-4.1c4.4-3,8.2-6.8,11.1-11.3l-4,2.2
		c-0.1,5.5,2.7,10.6,7.2,13.6c1.6,1.1,3.2,2,5,2.7c0.9,0.3,1.8,0.7,2.6,1.2c4.3,3.1,7.7,7.7,10.6,12.1c3.4,5.1,6.4,10.4,9,15.9
		c2,4,3.8,8.1,5.3,12.4c1.2,3.5,0.9,7.3-1,10.5c-0.2,0.3-0.4,0.6-0.7,0.9c0,0.1-0.5,0.6-0.3,0.3c-0.1,0.1-0.2,0.1-0.3,0.2
		c0.1-0.1,0.2-0.2,0,0c0.2-0.1,0.3-0.2,0.2-0.1c-0.4,0.2,0.4-0.1-0.2,0.1h0l-0.3,0.1l-0.7,0.2c-1.7,0.5-3.5,0.7-5.4,0.6
		c-3-0.1-6-0.5-8.9-1.4c-0.3,0-0.6-0.1-0.9-0.2c-0.2-0.2-0.4-1.4-0.6-1.9c-0.6-1.8-2-3.2-3.7-3.9c-2-0.6-4-1-6.1-1
		c-3-0.2-6-0.5-9-1.1c-2-0.4-3.9-1-5.8-1.6c-0.8-0.2-2.2,1-2.8,1.4C369,259.3,367.6,260.4,368.2,260.6z"></path><path class="st1" d="M421,242c0,0,13.2,4.4,15.8-2.7s-6.1-5.9-6.1-5.9s10.9-14.2-2.6-17.8c0,0,12.1-10.5,3.8-21.6
		s-26.6-5.4-26.6-5.4s1.5-16.1-12.6-15s-11.3,11.1-11.3,11.1s-9,0.6-9.6,6.2s6,8.2,6,8.2s1.5,16,13.8,14.5l10.5,20.7
		c0,0-4.6,7-0.6,14.8C405.6,256.8,421,252.3,421,242z"></path><path class="st1" d="M419.1,243.5c4,1.3,8.7,2,12.8,0.8c3.1-0.9,6.2-3.1,7.2-6.3c0.8-2.4,0.5-4.9-2.1-5.9c-1.7-0.6-3.4-0.7-5.1-0.4
		l0.8,1.2c1.9-2.4,3.2-5.2,4-8.1c0.6-2.1,0.5-4.3-0.3-6.3c-1.2-2.5-3.8-3.9-6.4-4.6l-0.8,2c5.4-4.8,9.6-12.6,6.8-19.8
		c-3.6-9.3-14-11.5-22.8-10.6c-2.5,0.2-4.9,0.7-7.3,1.4l1.6,0.4c0.4-4.6-0.8-10.2-4.5-13.2s-8.8-2.8-13.1-1.6
		c-4.1,1.1-8.5,3.5-10.2,7.6c-0.7,1.8-0.9,3.8-0.4,5.7l3.6-3c-4.6,0.3-10.2,2.2-12.5,6.5c-2.5,4.6,1.3,9.3,5.5,11l-0.3-0.5
		c0.3,2.9,1.1,5.7,2.5,8.3c1,2.1,2.5,3.8,4.4,5.1c2.4,1.5,5.2,2,8,1.6l-1-0.2l9.1,18.1l1.3,2.6l0.2-1c-1.3,2.2-2.2,4.6-2.4,7.1
		c-0.4,3.6,0.4,8.4,3.4,10.8c4.9,4.1,12.6,1.5,17-2.1c3-2.3,4.8-5.7,5-9.5c0-1.4-4.3,0.6-4.3,2.2c0,2.3-0.9,4.5-2.5,6.1
		c-0.6,0.6-1.3,1-2,1.3c-0.2,0.1-0.1,0,0,0l-0.5,0.2l-0.7,0.2c-0.5,0.2-1.1,0.3-1.6,0.3c-2,0.3-4.1-0.1-5.8-1.3
		c-2.5-1.8-3.5-5.4-3.6-8.4c-0.1-2.6,0.6-5.3,1.8-7.6c0.1-0.1-0.2,0.3,0,0l0.1-0.1c0.2-0.3,0.3-0.7,0.2-1.1
		c-0.1-0.3-0.2-0.6-0.4-0.8l-5.4-10.6l-4.7-9.2c-0.2-0.3-0.8-0.2-1-0.2c-7.9,0.9-12.1-7.3-12.7-14c0-0.2-0.1-0.4-0.3-0.4
		c-3.1-1.3-6.5-4.6-5.6-8.2c0.1-0.4,0.3-0.8,0.6-1.2c-0.1,0.1,0.3-0.3,0.3-0.3c-0.2,0.1-0.1,0.1,0.1,0c-0.2,0.1-0.2,0.1-0.1,0
		c0.5-0.4,0,0,0.3-0.2c0.2-0.1,0.4-0.2,0.6-0.3c-0.4,0.1,0.3-0.1,0.3-0.1l0.8-0.3c0.7-0.2,1.4-0.3,2.1-0.5l0.8-0.1
		c0.5-0.1-0.2,0,0,0c1.2-0.1,4.1-1.4,3.6-3c0.1,0.6,0,0,0-0.1c0-0.3-0.1-0.6-0.1-0.9c-0.1-0.8,0-1.7,0.1-2.5
		c0.1-0.5,0.3-1.1,0.6-1.6c0.2-0.4,0.4-0.8,0.8-1.2l0.1-0.1c0.1-0.1,0.6-0.5,0.1-0.1l0.4-0.3c0.7-0.4-0.5,0.2,0.3-0.1
		c0.8-0.4,1.6-0.7,2.5-0.9c3.6-0.8,8-0.9,10.9,1.8c1.9,1.9,3.2,4.4,3.6,7.2c0.3,1.7,0.4,3.4,0.3,5.1c-0.1,0.8,1.3,0.4,1.6,0.4
		s0.7-0.2-0.1,0l1.1-0.3c1.2-0.3,2.4-0.5,3.7-0.7c3.5-0.5,7.1-0.4,10.6,0.3c4.2,0.9,8,3.4,10.4,7c2.5,3.9,2.8,8.8,0.7,13
		c-0.4,0.9-0.9,1.7-1.5,2.5c-0.3,0.4-0.5,0.8-0.8,1.1s-0.3,0.4-0.6,0.7s-0.8,0.9-1.2,1.3c-0.1,0.1-0.3,0.2-0.4,0.4
		c-0.1,0.2,0.5-0.5,0.2-0.2s-1.8,1.7-0.8,2c2.4,0.7,4.8,1.8,5.9,4.2c0.7,1.7,0.7,3.7,0.2,5.4c-0.7,2.5-1.9,4.9-3.5,7
		c-0.6,0.8-0.1,1.3,0.8,1.2c0.1,0,0.5,0-0.1,0h0.7c0.7,0,1.3,0,2,0.1c1.7,0.3,3,1.4,2.9,3.2c-0.1,1-0.4,2-1,2.9c0,0.1-0.3,0.4,0,0.1
		c-0.1,0.1-0.3,0.1-0.1,0.1s0,0-0.1,0.1c0.1-0.1,0.4-0.2,0,0s0.1,0-0.3,0.1c-0.2,0.1-0.4,0.1-0.6,0.2c-2.1,0.4-4.3,0.3-6.4-0.1
		c-1.3-0.2-2.6-0.5-3.8-0.9c-1-0.3-2.2,0.5-3,1.1C419.6,241.8,418.2,243.2,419.1,243.5z"></path><path class="st0" d="M389.5,216.4c0,0,2.6-10.8,10.3-8.1s9.1,27.4-4.8,25.8"></path><path class="st1" d="M392,216.6c0.5-2.2,1.6-4.3,3.1-6.1c0.5-0.6,1.1-1.1,1.8-1.5c0.3-0.1,0.5-0.3,0.8-0.4l0.4-0.1
		c-0.2,0-0.1,0,0.1,0h-0.3c-0.1,0,0,0,0.2,0.1c-0.2-0.1,0.2,0.1,0.2,0.1c-0.3-0.1,0.3,0.2,0.4,0.2c0.5,0.3,0.9,0.8,1.2,1.2
		c1.7,2.5,2.7,5.4,2.9,8.4c0.4,3.3,0,6.7-1.3,9.8c-0.6,1.5-1.6,2.8-2.9,3.8c-0.6,0.4-1.2,0.7-1.9,0.9c-0.3,0.1-0.6,0.1-0.9,0.2
		c-0.7,0.1,0.4,0-0.3,0c-0.3,0-0.3,0,0,0l-0.5-0.1c-0.5,0-2.5-0.2-2.6,0.5s2.1,0.9,2.4,1c4.1,0.4,8.3-0.4,10.7-4
		c1.9-3.3,2.7-7,2.3-10.8c-0.2-3.4-1.1-7.2-3.3-9.9c-1.1-1.3-2.6-2.2-4.3-2.6c-2.6-0.7-5.8-0.8-8.2,0.6c-2.7,1.6-4.4,4.9-5.1,7.9
		C386.8,217,391.7,217.8,392,216.6L392,216.6z"></path><path class="st1" d="M372.4,213.4c-1,0.2-1.6,1.2-1.4,2.2c0,0.1,0,0.2,0.1,0.3c0.7,1.9,3,1,2.9-0.8c0.1-0.8-0.6-1.6-1.4-1.6
		C372.5,213.4,372.4,213.4,372.4,213.4z"></path><polygon class="st0" points="326,254 333.5,251.6 359.9,271.8 398.1,256.5 407.3,261.1 363.1,272.9 356.6,273.2 	"></polygon><path class="st2" d="M326.8,254.4l7.5-2.4l-3.1,0.3l25.4,19.5c0.3,0.3,0.6,0.5,0.9,0.7c1.2,0.5,2.9-0.2,4.1-0.6
		c1.7-0.7,3.4-1.4,5.1-2.1l19-7.6l13.6-5.5l-3.7,0.5l9.2,4.6l1.5-1.1l-14.9,4l-23.8,6.4l-5.5,1.5l2.4-0.4l-4.5,0.2
		c-0.7-0.1-1.3,0-2,0.1c-0.4,0.1,0.6,0.2,0.5,0.1s-0.2-0.1-0.2-0.1c-0.6-0.5-1.3-0.9-2-1.3l-3.6-2.3l-19.6-12.3l-5.1-3.2
		c-0.7-0.5-2.3,0.1-3.1,0.3c-0.2,0.1-2.1,0.7-1.5,1.1l14.5,9.1l10.4,6.5l3.7,2.3c0.6,0.4,1.2,0.8,1.9,1.2c0.9,0.4,2.3,0.1,3.3,0.1
		c2,0.1,4.1-0.1,6.1-0.5c1.5-0.4,3-0.8,4.5-1.2l22.6-6.1c5.7-1.5,11.4-3,17.1-4.6l0.3-0.1c0.1,0,2.2-0.8,1.5-1.1l-4.6-2.3
		c-1.5-0.9-3-1.6-4.6-2.3c-1.5-0.5-3.2,0.3-4.7,0.9l-3.8,1.5l-26,10.5l-7.4,3l3.7-0.5l-13-10l-9.1-7l-3-2.3c-0.4-0.4-0.8-0.7-1.3-1
		c-1.5-0.7-4.4,0.7-5.9,1.2l-4.7,1.5c-0.4,0.1-2,0.5-1.5,1.1S326.4,254.6,326.8,254.4z"></path><path class="st2" d="M356.6,273.2L326,254l-1.2,75.2c0,0,32.5,17.7,31.8,12.9S356.6,273.2,356.6,273.2z"></path><path class="st2" d="M357.5,271.4l-26.7-16.8l-3.8-2.4c-1.4-0.9-3-0.5-3.1,1.4l-0.4,25.6l-0.6,40.4l-0.1,9.2c0,1.1,1,2,1.9,2.4
		c5.9,3.2,11.9,6.3,18,9.1c3.7,1.8,7.5,3.3,11.4,4.5c1.2,0.4,2.5,0.4,3.7,0.1c1.2-0.5,1.3-1.8,1.2-3c-0.2-2.4-0.2-4.9-0.2-7.3
		c0-4.2-0.1-8.4-0.1-12.6c0-10.1,0-20.1,0.1-30.2c0-4,0.1-8,0.1-11.9c0-2,0.1-4.1,0.1-6.1c0-0.1,0-0.2,0-0.3c0-2.5-4.4-3.9-4.4-0.7
		c0,4.8-0.1,9.6-0.1,14.4c-0.1,9.7-0.1,19.3-0.2,29c0,7.6-0.1,15.3,0.2,23c0,0.8,0,1.5,0.1,2.3c0.1,0.4,0,0.2,0-0.1
		c0.1-0.3,0.3-0.6,0.6-0.8c-0.5,0.2,0.4-0.1,0,0c-0.1,0-0.2,0-0.3,0c-0.4,0,0.5,0.1,0.1,0c-0.5-0.1-1.1-0.2-1.7-0.3s0,0-0.1,0
		l-0.5-0.2l-1.3-0.4c-1.9-0.7-3.7-1.5-5.6-2.3c-6.9-3-13.5-6.6-20.1-10l-0.4-0.2l1.9,2.4l0.4-25.6l0.6-40.4l0.1-9.2l-3.1,1.4
		l26.7,16.8l3.8,2.4c0.9,0.6,2.3,0.8,2.9-0.3C359,273.4,358.5,272.1,357.5,271.4z"></path><path class="st2" d="M407.3,261.1c0,0-44.1,10.4-44.1,11.9v68.4l47.1-11.1L407.3,261.1z"></path><path class="st2" d="M407.9,260.6c-7.1,1.7-14.2,3.4-21.2,5.2c-5.2,1.3-10.4,2.6-15.6,4.1c-2.1,0.6-4.2,1.2-6.2,1.9
		c-1.3,0.3-2.6,0.8-3.7,1.5c-0.4,0.3-0.4,0.5-0.4,1v64.9c-0.1,0.8-0.1,1.7,0,2.5c0,0.1,0,0.2,0,0.3c0,0.2,1.8-0.2,1.8-0.2l15.9-3.7
		l25.3-6l5.8-1.4c0.2,0,3-0.6,3-1.1l-1-23.4l-1.6-37.2l-0.4-8.5c0,0-4.9,0.6-4.8,1.3l1,23.4l1.6,37.2l0.4,8.5l3-1l-15.9,3.8l-25.3,6
		l-5.8,1.4l1.8-0.2v-61.5c0-2.2-0.2-4.5,0-6.7c0-0.1,0-0.3,0-0.3s0.4-0.2,0.1-0.1c0.3-0.2,0.5-0.2,0.3-0.1l0.7-0.3h0.1l0.5-0.2
		l0.5-0.2c0.4-0.1-0.5,0.1,0.1,0l1.3-0.4l1.3-0.4l0.7-0.2h-0.1l0.5-0.1l3.4-0.9c2.5-0.7,5-1.3,7.5-2c2.7-0.7,4.6-1.2,7.4-1.9
		l7.3-1.8l8.9-2.1l0.4-0.1c0.6-0.1,1.2-0.3,1.9-0.5c0.1,0,1-0.3,1.1-0.4S408,260.6,407.9,260.6z"></path><path class="st0" d="M356.6,273.2c0,0,3.9-2.9,6.5-0.2v68.4c0,0-4.1,2.2-6.5,0.7V273.2z"></path><path class="st2" d="M358.2,274C358.6,273.7,357.9,274.1,358.2,274c0.2-0.1,0.3-0.2,0.5-0.2l0.3-0.1c-0.2,0.1-0.2,0.1,0,0
		c0.2-0.1,0.5-0.2,0.8-0.2c0.5,0.1,0.9,0.3,1.2,0.7l-0.2-0.7v68.4l1.3-1.5l-0.5,0.2c0.4-0.2,0.2-0.1-0.1,0s-0.5,0.2-0.8,0.3
		c-0.8,0.3-1.6,0.2-2.3-0.1l0.6,1v-68.9c0-2.2-4.8-1-4.8,0.8v68.9c0,0.4,0.2,0.8,0.6,1c2.9,1.5,6.7,0.4,9.4-1
		c0.5-0.3,1.3-0.9,1.3-1.5v-64.5c0-1.3,0-2.5,0-3.8c-0.1-1.8-2.8-2.4-4.2-2.5c-2.3,0-4.5,0.8-6.4,2.2c-0.8,0.6-1.2,1.6-0.2,2.2
		S357.4,274.6,358.2,274z"></path><path class="st0" d="M380.8,354.1c0,0-17-13.5-23.5-30s1.5-16,1.5-16s-5.3-8.8-2.2-14.6s10.3,3.1,19.6,21.7c0,0-7.8-18.9-4-25.6
		c3.3-5.8,8,1.1,9.7,8.9s6,19.9,6,19.9s2.6-7.4,2.3-13.8c-0.5-11.1,11.5-13,13,0.5c2,17.3,2.4,24.9,2.4,24.9c0.8,4,1.8,7.9,3,11.8
		C410.1,346.5,391.9,358.3,380.8,354.1z"></path><path class="st1" d="M381.8,352.5c-5.4-4.3-10.2-9.3-14.5-14.8c-3.6-4.5-6.5-9.6-8.6-15c-1-2.4-1.6-4.9-1.9-7.5c0-0.5,0-0.9,0-1.4
		c0-0.2,0-0.4,0-0.6c0-0.6-0.1,0.4,0-0.2c0-0.3,0.1-0.5,0.2-0.8c0-0.1,0.1-0.3,0.1-0.4c0.1-0.3-0.2,0.3,0.1-0.1
		c0.1-0.2,0.3-0.5,0.5-0.7s-0.3,0.3,0,0c0.1-0.1,0.1-0.1,0.2-0.2l0.5-0.4c0.3-0.2-0.5,0.2-0.1,0.1c0.1,0,0.2-0.1,0.3-0.1
		c0.1,0,0.3-0.1,0.4-0.1c0.4-0.1,0.1,0-0.1,0c0.1,0,0.2,0,0.3,0c2,0.1,1.6-2.3,1-3.4c0.7,1.1,0.2,0.3,0,0.1
		c-0.2-0.5-0.5-0.9-0.7-1.4c-0.6-1.3-1.1-2.7-1.5-4.1c-0.5-1.6-0.5-3.2-0.3-4.9c0.1-0.7,0.4-1.3,0.7-1.9c0.1-0.2,0.2-0.3,0.3-0.5
		c0.3-0.4-0.2,0.1,0.2-0.2l0.4-0.2c-0.5,0.3,0,0,0.1,0s0,0-0.2,0h0.5c0.4,0-0.4-0.1-0.1,0l0.5,0.2c-0.5-0.2-0.1,0,0.1,0.1
		s0.4,0.2,0.5,0.4c-0.5-0.4,0.2,0.2,0.4,0.3c0.4,0.4,0.8,0.8,1.2,1.2c0.1,0.1,0.3,0.4,0,0l0.3,0.4c0.3,0.3,0.5,0.6,0.8,0.9
		c1.1,1.4,2.1,2.8,3,4.2c2.9,4.5,5.4,9.2,7.8,14c0.5,1,1.6,2.1,2.9,1.7s1.2-1.8,0.8-2.8c-0.9-2.1-1.6-4.2-2.3-6.4
		c-1.4-4-2.2-8.2-2.5-12.4c-0.1-1.6,0.2-3.2,0.8-4.6c0.3-0.5,0.6-0.9,1-1.3c0,0,0.6-0.3,0.4-0.2c0.6-0.2-0.1,0.1,0.2,0
		c0.2-0.1-0.2-0.1,0.2,0c-0.4-0.1,0.2,0.1,0.3,0.2c-0.3-0.3,0.3,0.3,0.3,0.3c0.2,0.2,0.4,0.4,0.5,0.6c1.7,2.4,2.5,5.3,3.2,8.1
		c0.6,2.6,1.3,5.1,2.1,7.6c1.2,4.1,2.6,8.2,4,12.2c0.5,1.5,3.2,2.7,3.9,0.7c1.3-3.7,2-7.5,2.3-11.4c0.1-2.1-0.2-4.2,0.4-6.2
		c0.3-1.3,1-2.4,2-3.3c0.2-0.2,0.4-0.3,0.7-0.5c0.3-0.2-0.4,0.1,0.1,0l0.3-0.1c0.1,0,0.9-0.2,0.5-0.1c0.3,0,0.7,0,1,0
		c-0.4,0,0.4,0.1,0.5,0.1c0.4,0.1,0.1,0,0,0c0.2,0.1,0.3,0.2,0.5,0.3c0.1,0.1,0.2,0.1,0.3,0.2c-0.4-0.3,0,0,0.1,0.1s0.3,0.2,0.4,0.4
		c-0.4-0.4,0.1,0.1,0.1,0.2c1,1.5,1.6,3.2,1.9,5c0.5,2.9,0.7,5.9,1,8.8c0.6,5.5,1,10.9,1.5,16.4c0.1,0.9,0.3,1.8,0.5,2.6
		c0.5,2.3,1.1,4.6,1.7,6.9c0.2,1,0.5,2,0.9,3c0.1,0.2,0-0.6,0-0.2c0,0,0,0.5,0,0.1s-0.1,0.4-0.2,0.5c-0.1,0.5,0.1-0.2,0,0l-0.2,0.4
		c-0.2,0.2-0.3,0.5-0.5,0.8c-0.4,0.5-0.8,1-1.3,1.4c-3.1,2.8-6.8,5-10.9,6.4c-4,1.4-8.6,2.3-12.8,0.8c-0.8-0.3-1.7,0.1-2,0.9
		c-0.1,0.2-0.1,0.4-0.1,0.6c0,1.3,0.9,2.4,2.1,2.9c8.2,3,18.2-0.9,24.8-6c2.3-1.7,5.2-4.3,5.2-7.5c-0.1-1-0.3-2-0.7-2.9
		c-0.4-1.3-0.8-2.7-1.1-4c-0.5-1.9-0.8-3.8-1.3-5.7c-0.2-0.7,0,0.6,0,0.2c0-0.2,0-0.4,0-0.6c-0.1-0.9-0.1-1.8-0.2-2.8
		c-0.3-4.1-0.7-8.2-1.1-12.2c-0.3-3.3-0.7-6.5-1.1-9.8c-0.3-2.5-1.1-4.9-2.3-7.1c-1.8-3-5.2-5.4-8.8-4.5c-4.1,1-5.8,5.5-6,9.2
		c-0.1,1.6,0,3.3-0.1,4.9c-0.2,1.5-0.4,3-0.8,4.5c-0.4,1.7-0.8,3.4-1.4,5l3.9,0.7c0-0.1-0.1-0.2-0.1-0.2c0-0.1-0.1-0.2-0.1-0.3
		c-0.2-0.5,0.2,0.5,0,0c-0.3-0.9-0.6-1.7-0.9-2.6c-0.9-2.7-1.8-5.4-2.6-8.1c-0.9-2.9-1.6-5.8-2.3-8.7c-0.7-3.5-2.2-6.8-4.3-9.6
		c-1.6-2-4.3-4.1-7-2.6c-2,1.1-3,3.6-3.3,5.7c-0.7,4.8,0.4,9.9,1.7,14.5c0.9,3.4,2.1,6.7,3.4,9.9l3.7-1c-2.5-5-5.2-10-8.2-14.7
		c-1.9-3-4-6.1-6.8-8.4c-1.8-1.5-4.4-3-6.6-1.5c-3,1.9-3.1,6.5-2.7,9.6c0.5,3.4,1.7,6.7,3.5,9.6l1-3.4c-1.5,0-3,0.6-4,1.8
		c-2.5,2.8-1.7,7.5-0.8,10.8c3.1,12.2,11.1,22.6,19.8,31.3c2.1,2.1,4.3,4.1,6.5,6c0.8,0.6,2.1,1.1,2.9,0.1S382.6,353.2,381.8,352.5z
		"></path><path class="st1" d="M356.8,309.3c0.3,0.7,0.6,1.5,1,2.1c0.6,1.2,1.3,2.3,2,3.5c1.5,2.4,3,4.9,4.6,7.3c0.5,0.8,1.1,1.6,1.6,2.5
		c0.7,1.1,5.2-0.6,4.9-1c-2.6-4.3-5.4-8.4-7.9-12.7c-0.5-0.8-1-1.7-1.3-2.6c-0.2-0.7-2.1-0.2-2.6-0.1S356.5,308.7,356.8,309.3
		L356.8,309.3z"></path><path class="st2" d="M442,104.2h-64.5c-2.2,0-3.9,1.7-3.9,3.9v45.3l0.1,8.9c0,0.9,0.8,1.7,1.8,1.7c0.4,0,0.9-0.2,1.2-0.5l9.9-10.1
		H442c2.2,0,3.9-1.7,3.9-3.9v-41.4C445.9,106,444.2,104.2,442,104.2z"></path><path class="st2" d="M375.5,164.5c-0.3,0-0.6-0.1-0.8-0.2c-0.8-0.3-1.4-1.1-1.4-2l-0.1-8.9v-45.3c0-2.4,2-4.4,4.4-4.4H442
		c2.4,0,4.4,2,4.4,4.4v41.4c0,2.4-2,4.4-4.4,4.4h-55.2l-9.7,9.9C376.6,164.3,376.1,164.5,375.5,164.5z M377.5,104.7
		c-1.9,0-3.4,1.5-3.4,3.4v45.3l0.1,8.9c0,0.5,0.3,0.9,0.8,1.1c0.5,0.2,1,0.1,1.3-0.3l10-10.2H442c1.9,0,3.4-1.5,3.4-3.4v-41.4
		c0-1.9-1.5-3.4-3.4-3.4L377.5,104.7z"></path><path class="st0" d="M383.1,118.7v17.7c0,0.9,1,2,1.6,2.6c0.1,0.1,1.6,1.6,1.6,1v-17.7c0-0.9-1-2-1.6-2.7
		C384.6,119.5,383.1,118,383.1,118.7L383.1,118.7z"></path><path class="st0" d="M384.4,130h10.6c1.1,0,2.6-0.9,2.6-2.1s-1.2-1.9-2.3-1.9h-10.6c-1.1,0-2.6,0.9-2.6,2.1S383.3,130,384.4,130
		L384.4,130z"></path><path class="st0" d="M392.8,117.8v18.9c0,0.5,1.9,1,2.3,1.1c0.2,0.1,2.5,0.7,2.5,0.4v-18.9c0-0.5-1.9-1-2.3-1.1
		C395.1,118.2,392.8,117.5,392.8,117.8L392.8,117.8z"></path><path class="st0" d="M401.3,131.8h4.9c0.9,0.1,1.9,0,2.8-0.1c0.7-0.2,1.4-0.7,1.7-1.3c0.1-0.5,0.2-0.9,0.2-1.4
		c0.1-0.7,0-1.5-0.1-2.2c-0.3-1-1-1.8-1.9-2.2c-1.5-0.7-3.1-0.8-4.7-0.4c-2.9,0.6-5.2,2.9-5.7,5.9c-0.3,2.7,0.8,5.4,2.9,7.1
		c1.6,1.3,3.7,1.9,5.8,1.8c1.8-0.1,3.5-1.1,4.6-2.6c0.3-0.4,0.5-0.9,0.3-1.5c-0.2-0.5-0.6-1-1.1-1.2c-0.9-0.4-2.8-0.6-3.5,0.5
		c-0.1,0.2-0.2,0.3-0.3,0.5l-0.2,0.2c0,0,0.3-0.2,0.1-0.1l-0.5,0.3c0,0,0.4-0.2,0.1-0.1c-0.1,0-0.2,0.1-0.3,0.1
		c-0.3,0.1,0.2-0.1,0.2-0.1c-0.1,0-0.2,0.1-0.3,0.1c-0.4,0.1,0.4,0,0,0H406c-0.4,0,0.5,0.1,0.1,0c-0.1,0-0.6-0.1-0.6-0.2
		s0.4,0.2,0.2,0.1l-0.3-0.2c-0.1,0-0.5-0.3-0.3-0.2s0,0,0,0l-0.2-0.2l-0.3-0.2c0.2,0.2,0,0,0,0l-0.2-0.2l-0.3-0.4
		c-0.1-0.1-0.2-0.3-0.3-0.5s0,0.1,0,0.1c0-0.1-0.1-0.2-0.1-0.3c-0.1-0.3-0.2-0.7-0.3-1c0-0.1,0-0.2,0-0.2c0.1,0.4,0,0.1,0,0
		s0-0.4,0-0.6c0-0.2,0-0.4,0-0.6c0-0.2,0.1-0.5,0-0.1c0.1-0.3,0.2-0.7,0.4-1c0-0.1,0.1-0.2,0.1-0.3s-0.2,0.3-0.1,0.1
		s0.2-0.2,0.3-0.4s0.2-0.3,0.4-0.4s0.2-0.2,0,0s0,0,0.1-0.1c0.1-0.1,0.3-0.2,0.4-0.3l0.2-0.1c0.2-0.1-0.2,0.1-0.2,0.1
		s0.4-0.2,0.5-0.2c0.5-0.2-0.3,0.1,0,0c0.2,0,0.4,0,0.6-0.1c0,0-0.6,0-0.3,0h0.4c0.4,0-0.5-0.1,0,0c0.1,0,0.2,0.1,0.2,0.1
		c-0.2,0-0.4-0.2-0.6-0.3c0,0-0.2-0.2-0.1-0.3c0,0.1,0.1,0.2,0.1,0.3c0-0.1,0-0.4,0,0v0.3c0,0.3,0,0.5,0,0.8v0.4
		c0,0.8-0.1-0.2,0.6-0.6l1.1-0.4c0.5,0,0.6,0,0.2,0h-6.2c-1,0-2.6,0.5-2.6,1.8C399,131,400.1,131.9,401.3,131.8L401.3,131.8z"></path><path class="st0" d="M413.9,118.8c-0.1,6.9,0,13.7,0.4,20.6c0.2,1.3,1,2.3,2.2,2.7c0.7,0.3,1.5-0.1,1.7-0.7
		c0.1-0.2,0.1-0.5,0.1-0.7c-0.3-6.9-0.5-13.7-0.4-20.6C418,117.9,414,115.8,413.9,118.8L413.9,118.8z"></path><path class="st0" d="M420.2,119.8l0.2,18c0,1,2,1,2.7,0.9c0.9-0.1,2.3-0.6,2.3-1.6l-0.2-18c0-1-2-1-2.7-0.9
		C421.6,118.3,420.1,118.7,420.2,119.8z"></path><path class="st0" d="M432.3,125.8c-1.6-0.2-3.2,0.6-4.2,1.9c-0.5,0.9-0.8,1.9-0.9,2.9c-0.1,1.8,0.4,3.6,1.4,5.1
		c0.6,0.9,1.5,1.7,2.5,2.1c1.6,0.6,3.5,0.5,5-0.3c1-0.5,2-1.3,2.8-2.1c0.8-0.8,1.2-2,0.9-3.2c-0.5-2.2-2-4.1-4-5.2
		c-0.6-0.2-1.2-0.3-1.8-0.3c-0.6,0-1.2,0.2-1.7,0.6c-0.3,0.3-0.7,0.6-0.6,1.1c0.1,0.4,0.4,0.8,0.8,1c0.3,0.1,0-0.1,0,0l0.2,0.1
		l0.4,0.3l0.4,0.3l0.1,0.1c0,0,0.3,0.3,0.1,0.1s0.2,0.2,0.2,0.3s0.2,0.2,0.2,0.4c0.2,0.3,0.4,0.6,0.5,0.9l0.2,0.5
		c-0.1-0.3,0,0.1,0.1,0.2c0,0.2,0.1,0.4,0.1,0.5c0,0.1,0,0.2,0,0.2c0,0.1,0,0.4,0,0.2c0,0.1,0,0.2-0.1,0.2c0,0-0.1,0.3,0,0.1
		s0,0.1,0,0.1s-0.1,0.2-0.2,0.2l-0.3,0.3c-0.2,0.2,0,0,0,0l-0.2,0.2c-0.1,0.1-0.3,0.2-0.4,0.3s-0.5,0.2-0.5,0.3s0.5-0.2,0.1-0.1
		l-0.2,0.1c-0.2,0.1,0.2-0.1,0.2-0.1c-0.2,0-0.2,0,0,0c0.1,0,0.3,0,0.4,0c0.5,0-0.3-0.1,0.2,0c0.1,0,0.3,0.1,0.4,0.1
		c-0.1,0-0.3-0.2,0,0l-0.2-0.1c-0.1-0.1-0.3-0.2-0.4-0.4l-0.1-0.1c-0.1-0.1,0.1,0.2,0,0c-0.4-0.5-0.7-1.1-1-1.7
		c0-0.1-0.1-0.2-0.1-0.3c0,0-0.1-0.2,0-0.1v-0.1c0-0.1,0-0.1,0-0.2c-0.1-0.3-0.1-0.7-0.2-1c0-0.4,0-0.7,0-1.1c0-0.1,0-0.1,0-0.2
		c0-0.4,0,0.1,0-0.1s0.1-0.4,0.1-0.5c0-0.2,0.1-0.4,0.2-0.5l0.1-0.2c0,0,0.2-0.4,0.1-0.2s0,0,0,0s0.1-0.2,0.2-0.3s-0.1,0.1-0.1,0.1
		c0.2-0.1,0.1-0.1-0.3,0.1c-0.4,0.2-0.9,0.3-1.3,0.2c0.6,0,1.3-0.1,1.9-0.3c0.4-0.2,1-0.5,1.1-1c0.3-1.1-1-1.6-1.9-1.6L432.3,125.8z
		"></path></g><g id="character-2"><path class="st1" d="M213,278.8c3-8.5,6.6-16.9,10.3-25.2c6.9-15.2,14.6-30.5,25.2-43.4c4.4-5.4,9.4-10.7,15.6-13.8
		c2.5-1.3,5.3-2.1,8.1-2.3c1.5-0.1,3,0.1,4.5,0.4l0.9,0.2l0.8,0.3c0.1,0.1,1,0.4,0.5,0.2l0.5,0.2c0.4,0.2-0.3-0.2,0.3,0.1l0.5,0.3
		c-0.6-0.3,0,0,0.1,0.1l0.5,0.3c-0.5-0.3,0.1,0.1,0.2,0.1c0.7,0.4,1.4,0.9,2,1.4c1.3,1,2.6,2.1,3.8,3.3c2.7,2.8,5.1,5.8,7.3,9
		c4.5,7,8.4,14.4,11.5,22.1c4.3,10.5,7.8,21.3,10.5,32.3c0,0.2,0.1,0.4,0.1,0.5c0.2,0.7,2,1.4,2.6,1.6c0.2,0.1,1.9,0.8,1.8,0.3
		c-0.6-2.9-1.4-5.7-2.2-8.5c-1.9-6.7-4.1-13.3-6.6-19.8c-3-7.9-6.6-15.6-10.9-22.9c-4-6.6-8.9-13.1-15.2-17.6
		c-5.7-4-13.1-7.4-20.3-5.9c-6.4,1.3-11.9,5.6-16.3,10.2c-5.7,6-10.8,12.7-15,19.8c-4.6,7.5-8.7,15.1-12.4,23
		c-3.2,6.6-6.1,13.4-8.9,20.2c-1.4,3.6-2.9,7.2-4.2,10.8l-0.2,0.5C208.2,277.3,212.8,279.2,213,278.8L213,278.8z"></path><path class="st1" d="M233.8,222.8c16.3,7.4,35.5,11.2,52.7,4.5c4.5-1.7,8.6-4.2,12.2-7.4c0.6-0.5-1.1-1.2-1.4-1.3
		c-0.6-0.2-2.5-1-3.1-0.4c-12.3,10.5-29.3,12.7-44.7,8.9c-4.5-1.1-8.9-2.7-13.1-4.6c-0.8-0.4-2.4-1.1-3.3-0.8
		S233.3,222.5,233.8,222.8L233.8,222.8z"></path><path class="st0" d="M302.5,161.1c0,0,7-28.9-17.6-37.1s-53.5,13.3-52.1,44.5s39.6,31.2,39.6,31.2L302.5,161.1z"></path><path class="st1" d="M304.9,162c1.1-4.7,1.3-9.5,0.8-14.2c-1-9.3-5.6-17.9-13.9-22.7c-9.7-5.6-21.9-6.1-32.3-2
		c-10.6,4.1-19.3,12.1-24.3,22.3c-4.9,10-6.6,23.1-2.4,33.7c3.4,8.4,10.3,14.3,18.4,17.9c5.9,2.6,12.1,4.1,18.5,4.6
		c1.3,0.1,3.9,0.7,4.9-0.4c0.9-1.1,1.8-2.2,2.6-3.4l14.4-18.6l12.3-15.8l0.7-0.9c1.6-2.1-2.7-4.5-4.1-2.6l-10.1,13l-16.2,20.9
		l-3.7,4.8l1.5-0.6c-0.5,0-1.1,0-1.6-0.1c-0.1,0-0.3,0-0.4,0h0.2l-1.1-0.1c-0.8-0.1-1.7-0.2-2.5-0.3c-2.1-0.3-4.2-0.7-6.2-1.2
		l-0.8-0.2c-0.2,0-0.9-0.2-0.3-0.1c-0.6-0.2-1.3-0.4-1.9-0.6c-1.2-0.4-2.4-0.8-3.6-1.3c-0.6-0.2-1.2-0.5-1.8-0.8l-0.9-0.4l-0.6-0.3
		c-1.2-0.6-2.4-1.4-3.5-2.1c-2.2-1.5-4.1-3.3-5.8-5.4c-4.2-5.4-5.7-12-5.6-18.9c0.2-15.9,9.2-30.9,23.5-38
		c6.3-3.2,13.4-4.4,20.4-3.6c6.7,1,13.2,4.1,17.1,9.6c3,4.6,4.7,9.9,4.8,15.4c0.1,2.2,0,4.4-0.2,6.7c-0.1,0.8-0.2,1.6-0.3,2.3
		l-0.1,0.9c-0.1,0.6,0.1-0.3-0.1,0.3c0,0.2-0.1,0.4-0.1,0.5c-0.2,1.2,0.5,2.3,1.7,2.6C302.7,163.1,304.6,163.2,304.9,162z"></path><path class="st0" d="M304.4,186.5c7.6-11.6-4.4-49.3-4.4-49.3c-7.2-9.2-39.3,0.3-39.3,0.3c5.6,9.4,5.8,25.8,5.8,25.8
		c-4.8-8.5-14.7-3.6-13.3,5s11.9,10.1,11.9,10.1s-0.9,18.7,0.2,22.1s17.9,6.7,25.4-4C290.6,196.5,297.7,196.7,304.4,186.5z"></path><path class="st1" d="M306.3,188c1.5-2.7,2.4-5.7,2.4-8.7c0.2-3.8,0.1-7.7-0.4-11.5c-0.9-7.6-2.4-15.1-4.5-22.5
		c-0.5-2-1.1-4-1.7-6.1c-0.1-0.4-0.3-0.8-0.6-1.2c-1.5-1.7-3.2-3.1-5.2-4.1c-6.3-3.5-14.5-2.5-21.3-1.5c-5.5,0.8-11,2-16.4,3.6v0.1
		c2.9,4.9,4.1,10.7,5,16.3c0.5,3.1,0.7,6.2,0.8,9.4l4,2.9c-1.1-1.9-2.6-3.5-4.5-4.8c-1.5-1.3-3.3-2.1-5.2-2.4c-3-0.3-5.8,1.4-7,4.1
		c-3.4,7.2,3.7,13.8,9.6,16.6c1.7,0.9,3.6,1.5,5.6,1.8l-3.9-3c-0.2,3.8-0.3,7.5-0.4,11.3c0,2.6,0,5.2,0.1,7.9
		c0.1,1.6,0.1,3.1,1.3,4.3c3.7,3.8,8.9,5.1,14.1,4.9c2.9-0.1,5.8-0.8,8.4-2.1c1.3-0.7,2.6-1.5,3.7-2.5c0.6-0.6,1.2-1.2,1.7-1.8
		c0.2-0.3,0.3-0.6,0.6-0.8c0.5-0.1,1.1-0.2,1.6-0.2c1.1-0.3,2.1-0.6,3.1-1.2C301.1,194.6,304.2,191.6,306.3,188
		c0.4-0.5-3.7-3.4-3.9-2.9c-2.9,4.3-7.2,9-12.6,9.9c-0.3,0-0.6,0-0.9,0.1c-0.4,0.1-0.7,0.7-0.9,1.1c-0.5,0.6-1,1.2-1.6,1.7
		c-2.1,1.8-4.6,3.2-7.3,3.8c-2.6,0.7-5.2,0.9-7.9,0.6c-1.1-0.1-2.1-0.3-3.2-0.6c-0.4-0.1-0.9-0.2-1.3-0.4c-0.2-0.1-0.4-0.1-0.6-0.2
		s-0.2-0.1-0.2-0.1s-0.2-0.1,0.3,0.2s0.7,0.5,1,0.8c0.2,0.2,0.3,0.3,0.3,0.3s-0.2-0.5-0.2-0.6c-0.2-0.8-0.3-1.6-0.3-2.4
		c-0.2-2.4-0.2-4.7-0.1-7.1c0-4,0.1-8.1,0.4-12.1c0-0.6-1.1-1.3-1.5-1.6c-0.7-0.6-1.5-1.1-2.4-1.4c-0.9-0.1-1.8-0.4-2.6-0.7
		c-0.9-0.3-1.7-0.6-2.5-1.1l-0.5-0.3c0.4,0.2,0,0,0,0s0.5,0.5,0,0c-0.1-0.2-0.3-0.3-0.4-0.5c-3.2-3.9-3-10.6,1.7-13.2
		c1.1-0.6,2.4-0.9,3.7-0.7c0.5,0.1,1,0.2,1.5,0.4c-0.1,0.2-0.8-1-0.9-0.6c0,0,0.3,0.3,0.3,0.3c0.3,0.4,0.6,0.9,0.9,1.4
		c0.5,0.8,1.2,1.4,2,1.9c0.6,0.4,1.3,0.7,2,1c-0.1-3.1-0.3-6.2-0.8-9.2c-0.4-2.8-0.9-5.5-1.6-8.2c-0.4-1.4-0.8-2.8-1.4-4.2
		c-0.5-1.3-1.3-2.6-1.8-3.9c-0.2-0.5-0.3-0.2,0.1-0.4c0.4-0.1,0.7-0.2,1.1-0.3c1.3-0.4,2.6-0.7,3.9-1c4.1-1,8.2-1.8,12.4-2.3
		c4.5-0.7,9-0.8,13.5-0.3c1,0.1,1.9,0.3,2.8,0.6c0.3,0.1,2.1,0.6,2.2,0.9c0-0.1-0.9-0.7-1.1-0.8c0.1,0.1,0.3,0.4,0.2,0.2s0,0,0,0
		c0.1,0.2,0.1,0.3,0.2,0.5c2,6.6,3.7,13.3,4.9,20.1c0.9,4.8,1.5,9.7,1.7,14.6c0.1,3.9,0,8.1-1.4,11.8c-0.3,0.7-0.7,1.5-1.1,2.1
		C302,185.6,306.1,188.4,306.3,188z"></path><path class="st0" d="M292.6,170.4c0,0,20.8-0.1,22.9-11.2s-13.3-14-23.5-3.4"></path><path class="st1" d="M293.2,172.6c6.3,0,13.3-1.2,18.7-4.6c5.4-3,7.3-9.9,4.3-15.3c-1.8-3.1-4.9-5.2-8.5-5.6
		c-6.4-1-12.8,2.1-17.1,6.6c-0.8,0.8-0.4,2.1,0.2,2.9c0.4,0.6,1.9,1.9,2.7,1.1c3.5-3.6,8.3-6.4,13.4-6.4c1,0,2.1,0.1,3,0.4
		c0.2,0.1,0.7,0.2,1,0.4c0.4,0.1,0.7,0.3,1,0.5c0.1,0.1,0.6,0.5,0.3,0.2c0.2,0.1,0.3,0.3,0.5,0.4c0.4,0.3-0.2-0.3,0.1,0.1
		c0.1,0.1,0.5,0.6,0.3,0.4s0.1,0.3,0.2,0.4c0.1,0.1,0.1,0.2,0.1,0.3c0,0-0.1-0.3,0-0.1c0.1,0.3,0.2,0.7,0.3,1.1
		c1,8.1-9,11.1-15.2,12.2c-1.6,0.3-3.2,0.5-4.8,0.6l-0.9,0.1c-0.1,0-0.2,0-0.3,0H292C289.3,168.2,291.3,172.6,293.2,172.6
		L293.2,172.6z"></path><path class="st1" d="M274.5,173c0.1,0.7,0.4,1.3,0.6,1.9c0.8,1.8,2.1,3.4,3.7,4.6c1.4,1.1,2.9,2,4.5,2.6c0.1,0,0.7,0.3,0.8,0.1
		s-0.3-0.7-0.4-0.8c-0.4-0.4-0.9-0.8-1.4-1.2c-0.5-0.4-1-0.7-1.5-0.9l-0.6-0.2c-0.3-0.1,0.5,0.2,0.1,0l-0.3-0.2
		c-0.2-0.1,0.5,0.3,0.3,0.2l-0.1-0.1l-0.1-0.1c-0.1,0,0.6,0.4,0.4,0.2l-0.2-0.2c0,0,0.6,0.5,0.3,0.3l-0.1-0.1l-0.1-0.1
		c-0.1,0,0.5,0.4,0.3,0.3s-0.1-0.1-0.2-0.2s-0.3-0.3,0,0s0,0,0-0.1l-0.3-0.4c-0.2-0.2,0.2,0.3,0,0.1l-0.2-0.2
		c-0.2-0.3-0.4-0.5-0.5-0.8c-0.1-0.1-0.1-0.2-0.2-0.4c0-0.1-0.1-0.1-0.1-0.2c0,0,0.1,0.3,0.1,0.1s0-0.1,0-0.1
		c-0.2-0.4-0.3-0.8-0.5-1.2c-0.1-0.2-0.1-0.4-0.1-0.6c-0.1-0.3-0.5-0.8-0.7-1c-0.5-0.4-1-0.8-1.5-1.2
		C276.1,173.2,274.3,172.3,274.5,173L274.5,173z"></path><path class="st1" d="M281.8,155c0-0.1,0-0.2-0.1-0.3v-0.2c0-0.2,0,0,0,0.1c0-0.1,0-0.2,0-0.3c0-0.1,0-0.1,0-0.2c0-0.1,0-0.2,0,0.1
		c0-0.1,0-0.2,0-0.3c0,0-0.1,0.2,0,0.1l0.1-0.1c0.1-0.2,0,0,0,0s0.1-0.1,0.1-0.1c0.1-0.1,0.2-0.2,0.2-0.2l-0.2,0.1
		c0.2-0.2,0.5-0.3,0.8-0.4l-0.2,0.1c0.3-0.1,0.5-0.1,0.8-0.1c0.2,0-0.2,0,0,0l0.2,0.1l0.4,0.1l-0.1-0.1l0.1,0.1l0.1,0.1
		c0.1,0,0.1,0.1,0.2,0.1l-0.1-0.1c0,0,0.1,0.1,0.1,0.1c0.1,0,0.1,0.1,0.1,0.1c0.2,0.2-0.1-0.2,0,0l0.1,0.1c0.2,0.3-0.1-0.2,0,0
		c0.1,0.3,0.3,0.5,0.6,0.7c0.2,0.1,0.5,0.2,0.7,0.1c0.5-0.3,0.4-1.1,0.2-1.5c-0.6-1.2-1.8-2.1-3.1-2.2c-0.6-0.1-1.1,0-1.6,0.3
		c-0.6,0.3-1.1,1-1.2,1.7c-0.1,0.8,0,1.6,0.2,2.3c0.1,0.3,0.2,0.6,0.5,0.8c0.2,0.2,0.4,0.3,0.7,0.3c0.6-0.1,0.7-0.7,0.5-1.2
		L281.8,155z"></path><path class="st1" d="M295.3,151.4c-0.2-0.6-0.2-1.4,0-2v0.1c0.1-0.1,0.2-0.2,0.3-0.3c0.1-0.1,0,0,0,0s0,0-0.1,0
		c0.2-0.1,0,0-0.5,0.1c-0.3,0.1-0.6,0.2-0.9,0.3H294c0.1,0,0,0,0,0h0.1h0.2c0.1,0,0.2,0.1,0.4,0.1h-0.1c0.5,0.2,0.8,0.6,1,1.1
		c0,0.1,0.4,0,0.4,0c0.3-0.1,0.6-0.1,0.9-0.2c0.3-0.1,0.6-0.2,0.8-0.3c0,0,0.4-0.1,0.3-0.2c-0.3-0.7-0.9-1.2-1.6-1.3
		c-0.4,0-0.8,0.1-1.2,0.2c-0.4,0.1-0.7,0.2-1,0.4c-0.2,0.1-0.4,0.2-0.6,0.3c-0.4,0.2-0.6,0.6-0.7,1c0,0.5,0,1,0.1,1.5
		c0,0.1,0.4,0,0.4,0c0.6-0.1,1.1-0.3,1.7-0.5C295.1,151.6,295.3,151.4,295.3,151.4L295.3,151.4z"></path><path class="st1" d="M221.3,255c6,1,11.8,3,17.7,4.2c5.5,1.1,11.1,1.9,16.7,2.2c11.5,0.7,23.1-0.4,34.3-3.2
		c6.2-1.6,12.2-3.7,18-6.4c0.4-0.2-1.6-0.5-1.7-0.5c-1-0.2-2.1-0.1-3.1,0.2c-18.8,8.6-40.1,11.6-60.3,7.3c-6-1.3-11.9-3.3-18-4.3
		c-1.2-0.2-2.4-0.2-3.5-0.1C220.5,254.6,220.4,254.8,221.3,255L221.3,255z"></path><path class="st0" d="M179.4,179.3c-6.7-11.7-12.4-32.7-7.7-42.7c5.1-10.9,10.3,1.9,10.3,1.9s-0.9-15.5,2.4-17.9
		c6.3-4.6,9.3,19.2,9.3,19.2s0.7-14.1,5.1-14.7c9.3-1.3,6.9,28.5,6.9,28.5s4.5-5.1,9.8-4.8s5,6,1.2,10.4c-4.5,5-6.6,11.8-7.7,17.2"></path><path class="st1" d="M181.1,178.6c-4.7-8.3-7.7-17.4-8.9-26.8c-0.7-4.1-0.6-8.2,0.2-12.3c0.4-2,1.3-3.8,2.5-5.4
		c0.2-0.2,0.5-0.4,0.6-0.6c0,0-0.1,0,0,0l0.3,0.1c0.3,0.1,0.5,0.2,0.7,0.4c1.7,1.2,2.9,3.4,3.7,5.3c0.6,1.4,3.6,0,3.5-1.2
		c-0.1-2.5-0.1-4.9-0.1-7.4c0-1.9,0.2-3.9,0.5-5.8c0.1-0.8,0.3-1.5,0.6-2.3c0.1-0.3,0.2-0.6,0.4-0.9c-0.1,0.2,0.2-0.3,0.1-0.2
		l0.2-0.2c-0.1,0.1-0.1,0.1,0,0c-0.3,0.3-0.1,0.1,0,0c0.5-0.2-0.4,0.2,0.1,0c0.1,0-0.1,0-0.2,0c-0.2-0.1,0.1,0,0.1,0
		c-0.3-0.1,0,0,0.1,0c0.2,0,0.3,0.1,0.5,0.3c0.9,0.8,1.6,1.9,2,3c1.3,3,2.2,6.1,2.8,9.3c0.4,2.1,0.8,4.2,1.1,6.3
		c0.2,1.8,3.5,0.5,3.5-0.9c0.1-2.9,0.6-5.9,1.3-8.7c0.2-1,0.6-1.9,1-2.8c0.2-0.3,0.4-0.7,0.6-1c0,0,0.3-0.4,0.2-0.2
		c0-0.1,0.1-0.1,0.2-0.2c0.2-0.2-0.1,0.2,0,0s0.2-0.2-0.1,0l0,0c0.4,0.1,0.2-0.1,0.7,0h0.1l0.4,0.2c0.2,0.1,0.4,0.3,0.6,0.4
		c2.2,2,2.8,5.8,3.2,8.6c0.5,3.8,0.7,7.7,0.6,11.6c0,2.3-0.1,4.6-0.3,6.8c-0.1,1.5,2.6,0.6,3,0c1-1.2,2.3-2.2,3.6-2.9
		c1.8-1,5.1-2,6.6,0s0.1,4.9-1.1,6.6c-1,1.3-2.1,2.5-3,3.9c-0.9,1.4-1.7,2.9-2.4,4.4c-1.5,3.3-2.6,6.8-3.3,10.4
		c-0.4,1.9,3.1,1.1,3.4-0.3c0.7-3.6,1.8-7.1,3.3-10.4c0.9-1.9,1.9-3.6,3.1-5.2c1.2-1.3,2.2-2.8,3.1-4.3c1.1-2.3,1.7-5.5-0.3-7.4
		c-2.4-2.3-6.6-1.4-9.3-0.2c-2.4,1-4.5,2.6-6.2,4.4h3c0.6-6.4,0.5-12.8-0.4-19.1c-0.5-3.1-1.2-7.4-4-9.3c-1.4-0.9-3.1-1.2-4.7-0.7
		c-2.2,0.7-3.5,2.6-4.3,4.6c-1.3,3.8-2,7.8-2,11.9l3.5-0.9c-0.3-2.1-0.6-4.1-1-6.1c-0.6-3.6-1.7-7.1-3.1-10.5
		c-1.3-2.7-3.5-4.9-6.7-3.5c-3.6,1.6-4,6.2-4.3,9.6c-0.3,3.4-0.3,6.8-0.1,10.1l3.5-1.2c-0.8-2.1-2.1-4.1-3.8-5.6
		c-3.4-2.8-7.4-0.1-9.2,3.2c-2.2,4-2.7,8.6-2.5,13c0.3,5.3,1.2,10.6,2.8,15.6c1.6,5.6,3.8,11,6.6,16.1
		C178.5,181.5,181.9,179.9,181.1,178.6L181.1,178.6z"></path><path class="st1" d="M196.6,149.6c0-0.7-0.1-1.5-0.1-2.2c-0.3-2.8-0.7-5.6-1.1-8.4c-0.2-1.2-0.9-2.2-1.8-2.9
		c-0.4-0.3-1.7-1.1-1.5,0c0.4,2.8,0.8,5.6,1.1,8.4c0.1,0.7,0.1,1.5,0.2,2.2c0.1,0.5,0.3,1,0.6,1.4c0.3,0.6,0.7,1.1,1.2,1.5
		C195.5,150,196.6,150.7,196.6,149.6L196.6,149.6z"></path><path class="st1" d="M179.7,138.3c0.8,3.5,1.4,7,1.9,10.6c0.3,1.3,1.5,2.1,2.8,2c1.4-0.3,1.7-1.6,1.6-2.8
		c-0.5-3.5-1.2-7.1-1.9-10.6c-0.3-1.3-1.5-2.1-2.8-2C180.1,135.8,179.4,137,179.7,138.3C179.7,138.2,179.7,138.3,179.7,138.3
		L179.7,138.3z"></path><path class="st1" d="M201.7,160.6c0.5-0.9,1.1-1.7,1.7-2.5c1.1-1.4,2.2-2.8,3.5-4c0.2-0.1-0.9-0.7-1-0.7c-0.3-0.1-0.5-0.2-0.8-0.3
		c-0.1,0-0.3-0.1-0.4,0c-1.3,1.2-2.4,2.6-3.5,4c-0.6,0.8-1.2,1.6-1.7,2.5c-0.1,0.2,0.9,0.7,1,0.7S201.6,160.9,201.7,160.6
		L201.7,160.6z"></path><path class="st2" d="M218.1,131.6l12.1-6.1c1-0.5-0.4-1-0.9-1.1c-1.1-0.3-2.3-0.2-3.4,0.2l-12.1,6.1c-1,0.5,0.4,1,0.9,1.1
		C215.9,132,217,132,218.1,131.6z"></path><path class="st2" d="M212.2,123.4l3.2-12.7c0.2-0.6-2.3-0.5-2.6-0.4c-0.7,0.1-2.2,0.2-2.4,1l-3.2,12.7c-0.2,0.6,2.3,0.5,2.6,0.4
		C210.5,124.4,212,124.2,212.2,123.4L212.2,123.4z"></path><path class="st2" d="M124.5,151.8c-2.1-12.4-1-25.8,5-37c5.5-10.4,15.6-17.6,27.2-19.5c3.1-0.5,6.2-0.5,9.2,0
		c2.5,0.5,4.9,1.5,7,2.9l-0.3-0.3c-1.3,2-2.9,3.7-4.7,5.2c-0.8,0.7-1.8,1.2-2.8,1.5c-0.4,0.1-0.9,0.2-1.3,0.3c-0.3,0-0.6,0-0.9,0
		c-1.3,0.1,1,0.2,0.9,0.4c-0.4-0.3-0.7-0.6-1.1-1c-0.3-0.4-0.6-0.9-0.7-1.4c-0.3-1.2-0.3-2.4,0.1-3.6c0.8-2.2,1.9-4.2,3.4-5.9
		c5.8-7.5,13.6-13.4,22.5-16.8c2.5-1,5.1-1.7,7.8-2.1c2.4-0.3,4.8-0.4,6.6,0.8c1,0.6,2.1,1,3.3,1.2c0.3,0.1,1.9,0.3,1-0.2
		c-5.4-3.2-11.7-4.2-17.8-2.8c-5.6,1.3-10.9,3.7-15.7,7c-5.6,3.8-25,20.1-11.4,25.1c2.8,1,6,1.7,8.7,0.4s4.9-4,6.8-6.5
		c0-0.1-0.1-0.2-0.3-0.3c-10.7-6.8-24.2-7.6-35.7-2.1c-11.9,5.8-19.2,17.5-21.7,30.2c-1.4,7.6-1.5,15.5-0.2,23.1
		c0.1,0.6,1.8,1,2.3,1.1C122.2,151.5,124.6,152,124.5,151.8L124.5,151.8z"></path><path class="st2" d="M318.8,77.2c4.6-1.1,10.2-2.3,14.8-0.3c4.7,2.1,5,7.5,5.1,12.1c0.1,6.6,0,13.1,0,19.7c0,5.7-0.2,11.7,2.2,17
		c2.8,6.2,8.8,8.9,15,11c1.1,0.4,1.8-0.9,1.7-1.8c-0.1-1.3-0.8-2.4-2-2.8c-4.8-1.6-10.1-3.5-11.9-8.6c-0.8-2.6-1.2-5.3-1.1-8
		c-0.1-3.2,0-6.4,0-9.7v-10c0-2.9,0.1-5.8-0.1-8.8c-0.4-5.5-2.5-11.3-7.7-14s-11.5-1.7-17-0.4c-1.2,0.3-1.4,1.4-1.1,2.5
		c0.2,0.9,1.2,2.5,2.4,2.3L318.8,77.2z"></path><path class="st1" d="M226.2,51.3h66.1c2.1-0.1,3.9,1.6,4,3.7v43.3l-0.1,8.5c-0.1,1-1,1.7-1.9,1.6c-0.4,0-0.8-0.2-1.1-0.5l-10.1-9.6
		h-56.8c-2.1,0.1-3.9-1.6-4-3.7V55C222.3,52.9,224.1,51.2,226.2,51.3z"></path><path class="st1" d="M294.4,108.9c-0.6,0-1.2-0.2-1.6-0.6l-10-9.5h-56.6c-2.4,0.1-4.4-1.8-4.5-4.2V55c0.1-2.4,2.1-4.3,4.5-4.2h66.1
		c2.4-0.1,4.4,1.8,4.5,4.2v43.3l-0.1,8.5c0,0.8-0.6,1.6-1.3,1.9C295.1,108.9,294.7,108.9,294.4,108.9z M226.2,51.8
		c-1.9-0.1-3.4,1.3-3.5,3.2v39.6c0.1,1.9,1.7,3.3,3.5,3.2h57l10.3,9.8c0.4,0.4,1,0.5,1.4,0.2c0.4-0.2,0.7-0.5,0.7-1l0.1-8.5V55
		c-0.1-1.8-1.6-3.3-3.5-3.2L226.2,51.8z"></path><path class="st0" d="M246.3,65.9c-2.6-0.3-5.2,0.2-7.5,1.5c-1.9,0.9-3.5,2.4-4.5,4.3c-1.8,3.5-2.5,9,0.2,12.2
		c2.9,3.6,7.6,3.3,11.6,1.9s7.2-4.5,7.6-8.9c0.4-4.2-1.9-9.4-6.6-9.9c-1.2,0-2.3,0.3-3.3,0.9c-0.3,0.2-1.6,0.8-0.6,0.9
		c3,0.3,4.9,3.4,5.5,6.1c0.9,3.3,0,6.7-2.4,9.2c-0.2,0.2-0.5,0.4-0.8,0.6c-0.3,0.2-0.6,0.3-0.8,0.5c-0.1,0.1,0.5-0.2,0.5-0.2
		s-0.6,0-0.7,0c-1.4-0.1-2.8-0.5-3.9-1.4c-2.8-1.9-3.3-5.4-2.9-8.6c0.2-1.9,0.8-3.8,1.8-5.4c0.5-0.8,1.1-1.5,1.8-2
		c0.1-0.1,0.2-0.1,0.3-0.2c0.4-0.3-0.5,0.1-0.6,0.2c-0.4,0.2-0.2,0-0.1,0s0.6,0,0.9,0.1c1,0,2.1-0.2,3-0.6c0.5-0.2,0.9-0.4,1.4-0.7
		C246.3,66.3,246.6,66,246.3,65.9L246.3,65.9z"></path><path class="st0" d="M257,66.1c-0.2,6.8-0.1,13.7,0.3,20.5c0.1,2.1,5.1,1.5,5-0.7c-0.4-6.8-0.5-13.7-0.3-20.5
		c0-1.2-1.9-1.4-2.7-1.2C258.2,64.3,257,64.9,257,66.1z"></path><path class="st0" d="M279.2,72.2c-0.6-0.1-1.3-0.2-1.9-0.1c-1.3,0.1-2.5,0.4-3.7,0.8c-1.3,0.3-2.5,0.9-3.4,1.9
		c-0.8,0.9-1.4,1.9-1.8,3c-0.5,1.1-0.8,2.2-0.8,3.4c0.1,2.2,2,3.2,4,3.2c1,0,1.9-0.2,2.9-0.4c1-0.2,1.9-0.5,2.8-0.8
		c1-0.4,1.8-1.1,2.4-1.9c1.7-2.3,1.6-5.3,1.5-8l-4.9,1.1l4,10.4c0.1,0.3,2.2-0.2,2.5-0.3s2.5-0.6,2.4-0.8l-4-10.4
		c-0.1-0.3-2.2,0.2-2.5,0.3c-0.6,0.1-1.1,0.3-1.7,0.5c-0.1,0-0.7,0.2-0.7,0.3c0.2,2,0.1,3.9-0.4,5.8c-0.2,0.8-0.6,1.5-1.1,2.2
		c-0.5,0.6-1.1,1.1-1.8,1.5c0,0,2.8-0.6,2.8-0.6h-0.1c-0.1,0-0.3,0-0.4,0c-0.3,0-0.7-0.1-1-0.3c-0.6-0.3-1.1-0.8-1.4-1.4
		c-0.8-1.6,0-3.6,0.6-5.2c0.4-0.9,1-1.8,1.7-2.5c0.3-0.3,0.7-0.6,1.1-0.8l0.3-0.1l-2.7,0.6c0.2,0.1,0.5,0.1,0.7,0.1
		c0.4,0,0.8,0,1.2-0.1c0.6-0.1,1.3-0.2,1.9-0.4c0.5-0.1,1-0.3,1.4-0.4C279,72.5,279.4,72.4,279.2,72.2L279.2,72.2z"></path><path class="st0" d="M273.2,68.1c1.6-0.2,3.2-0.5,4.7-0.9c0.2,0,0.4-0.1,0.5-0.2c0.2-0.1,0.3-0.3,0.3-0.5c0.1-0.5,0-1.1-0.2-1.6
		c-0.2-0.6-0.6-1.2-1.1-1.6L277,63c-0.2-0.2-0.5-0.3-0.8-0.3c-1.5,0.4-3.1,0.7-4.7,0.9c-1.1,0.1-0.9,1.6-0.6,2.3
		c0.2,0.6,0.6,1.2,1.1,1.6C272.2,67.9,272.7,68.1,273.2,68.1L273.2,68.1z"></path></g></svg>